<svg xmlns="http://www.w3.org/2000/svg" viewBox="0 0 2816 1814.21"><defs><style>.cls-1,.cls-5{fill:#7588dc;}.cls-1{opacity:0.3;}.cls-2{fill:#006;}.cls-14,.cls-15,.cls-17,.cls-18,.cls-3,.cls-4,.cls-7,.cls-8,.cls-9{fill:none;}.cls-3,.cls-4,.cls-8{stroke:#006;}.cls-14,.cls-15,.cls-17,.cls-18,.cls-20,.cls-3,.cls-4,.cls-7,.cls-8,.cls-9{stroke-miterlimit:10;}.cls-3{stroke-width:9px;}.cls-6{fill:#e20613;}.cls-7,.cls-9{stroke:#e20613;}.cls-15,.cls-7,.cls-9{stroke-width:5px;}.cls-8{stroke-width:2px;}.cls-9{stroke-linecap:square;}.cls-10{fill:#636cc7;}.cls-11,.cls-20{fill:#fff;}.cls-12{fill:#2835bd;}.cls-13{fill:#26269e;}.cls-14,.cls-15,.cls-18,.cls-20{stroke:#fff;}.cls-14{stroke-width:3px;}.cls-16{opacity:0.8;}.cls-17{stroke:#000;}.cls-17,.cls-18,.cls-20{stroke-width:6px;}.cls-19{fill:#3972ff;}</style></defs><g id="Plan01"><polygon class="cls-1" points="2196.7 1479.95 1960.42 1479.95 1960.42 1548.86 2554.32 1548.86 2554.32 1058.7 2196.7 1058.7 2196.7 1479.95"/><polygon class="cls-1" points="1528.97 1013.22 1680.84 1053.91 1680.84 1382.66 1615.35 1382.66 1615.35 1548.86 1528.97 1548.86 1528.97 1013.22"/><path class="cls-2" d="M2251,1882.19H259.81v-337H242V1900H2251Zm81.34,17.81h131.74v-17.81H2332.32Zm511.13-673.19V1097.36H1946.92L926.39,823.91l-4.61,17.2,1020.53,273.45,2.26.61h881.07v111.64Zm-17.81,81.34v364.77h214.55v209.28H2545.4V1900H3058V1655.1H2843.45v-347ZM688.43,117.81V411.05l13.21,3.54,204.05,54.66L818.41,795l-4.61,17.2L831,816.79l10.48,2.81,4.61-17.2-10.48-2.81L927.5,456.66,706.25,397.39V100H242V1353h17.81V117.81H688.43" transform="translate(-242 -85.79)"/><line class="cls-3" x1="2120.58" y1="1582.68" x2="2583.64" y2="1582.68"/><line class="cls-3" x1="1609.98" y1="1582.68" x2="2037.47" y2="1582.68"/><polyline class="cls-3" points="867.06 1409.02 1515.04 1582.68 1551.47 1582.68"/><polyline class="cls-3" points="193.27 929.64 664.31 929.64 664.31 1354.69 786.78 1387.51"/><line class="cls-3" x1="17.81" y1="929.64" x2="110.58" y2="929.64"/><polyline class="cls-3" points="664.31 1119.62 333.64 1119.62 333.64 1148.41"/><polyline class="cls-3" points="333.64 1209.56 333.64 1238.35 516.49 1238.35 516.49 1119.62"/><line class="cls-3" x1="516.49" y1="1491.85" x2="516.49" y2="1238.35"/><polyline class="cls-3" points="436.91 1491.85 708.42 1491.85 739.76 1374.91"/><line class="cls-3" x1="329.19" y1="1024.63" x2="664.31" y2="1024.63"/><line class="cls-3" x1="1495.15" y1="970.03" x2="1495.15" y2="1577.25"/><line class="cls-3" x1="1714.66" y1="1029.38" x2="1714.66" y2="1582.68"/><line class="cls-3" x1="2024.55" y1="1498.04" x2="2024.55" y2="1582.68"/><polyline class="cls-3" points="2162.88 1029.38 2162.88 1446.13 1926.6 1446.13 1926.6 1582.68"/><polyline class="cls-3" points="2804.41 1691.76 2160.35 1691.76 2160.35 1796.4"/><line class="cls-3" x1="1926.6" y1="1731.25" x2="1926.6" y2="1805.8"/><line class="cls-3" x1="1926.6" y1="1582.68" x2="1926.6" y2="1649.91"/><line class="cls-4" x1="2340.92" y1="1582.68" x2="2340.92" y2="1796.4"/><line class="cls-4" x1="2362.23" y1="1582.68" x2="2362.23" y2="1796.4"/><line class="cls-4" x1="2383.54" y1="1582.68" x2="2383.54" y2="1796.4"/><line class="cls-4" x1="2404.86" y1="1582.68" x2="2404.86" y2="1796.4"/><line class="cls-4" x1="2426.17" y1="1582.68" x2="2426.17" y2="1796.4"/><line class="cls-4" x1="2447.48" y1="1582.68" x2="2447.48" y2="1796.4"/><line class="cls-4" x1="2468.8" y1="1582.68" x2="2468.8" y2="1796.4"/><line class="cls-4" x1="2490.11" y1="1582.68" x2="2490.11" y2="1796.4"/><line class="cls-4" x1="2511.42" y1="1582.68" x2="2511.42" y2="1796.4"/><line class="cls-4" x1="2532.73" y1="1582.68" x2="2532.73" y2="1796.4"/><line class="cls-4" x1="2554.05" y1="1582.68" x2="2554.05" y2="1796.4"/><line class="cls-4" x1="2575.36" y1="1582.68" x2="2575.36" y2="1796.4"/><line class="cls-4" x1="1263.22" y1="1616.57" x2="1288.57" y2="1521.98"/><line class="cls-4" x1="1283.8" y1="1622.08" x2="1309.15" y2="1527.5"/><line class="cls-4" x1="1304.39" y1="1627.6" x2="1329.74" y2="1533.02"/><line class="cls-4" x1="1324.98" y1="1633.12" x2="1350.33" y2="1538.54"/><line class="cls-4" x1="1345.56" y1="1638.64" x2="1370.91" y2="1544.05"/><line class="cls-4" x1="1366.15" y1="1644.15" x2="1391.5" y2="1549.57"/><line class="cls-4" x1="1386.74" y1="1649.67" x2="1412.09" y2="1555.09"/><line class="cls-4" x1="1407.32" y1="1655.19" x2="1432.67" y2="1560.6"/><line class="cls-4" x1="1427.91" y1="1660.7" x2="1453.26" y2="1566.12"/><line class="cls-4" x1="1448.5" y1="1666.22" x2="1473.85" y2="1571.64"/><line class="cls-4" x1="1469.08" y1="1671.74" x2="1494.43" y2="1577.15"/><line class="cls-4" x1="1057.35" y1="1561.4" x2="1082.7" y2="1466.81"/><line class="cls-4" x1="1077.94" y1="1566.91" x2="1103.29" y2="1472.33"/><line class="cls-4" x1="1098.52" y1="1572.43" x2="1123.87" y2="1477.85"/><line class="cls-4" x1="1119.11" y1="1577.95" x2="1144.46" y2="1483.36"/><line class="cls-4" x1="1139.7" y1="1583.46" x2="1165.05" y2="1488.88"/><line class="cls-4" x1="1160.28" y1="1588.98" x2="1183.04" y2="1504.08"/><line class="cls-4" x1="1196.14" y1="1537.53" x2="1206.22" y2="1499.92"/><line class="cls-4" x1="1180.87" y1="1594.5" x2="1190.95" y2="1556.89"/><line class="cls-4" x1="1204.05" y1="1590.34" x2="1226.81" y2="1505.43"/><line class="cls-4" x1="1222.04" y1="1605.53" x2="1247.39" y2="1510.95"/><line class="cls-4" x1="1242.63" y1="1611.05" x2="1267.98" y2="1516.47"/><line class="cls-4" x1="892.66" y1="1517.26" x2="918.01" y2="1422.68"/><line class="cls-4" x1="913.24" y1="1522.78" x2="938.59" y2="1428.19"/><line class="cls-4" x1="933.83" y1="1528.29" x2="959.18" y2="1433.71"/><line class="cls-4" x1="954.42" y1="1533.81" x2="979.77" y2="1439.23"/><line class="cls-4" x1="975" y1="1539.33" x2="1000.35" y2="1444.75"/><line class="cls-4" x1="995.59" y1="1544.85" x2="1020.94" y2="1450.26"/><line class="cls-4" x1="1016.18" y1="1550.36" x2="1041.53" y2="1455.78"/><line class="cls-4" x1="1036.76" y1="1555.88" x2="1062.11" y2="1461.3"/><line class="cls-4" x1="446.71" y1="929.64" x2="446.71" y2="1119.62"/><line class="cls-4" x1="468.02" y1="929.64" x2="468.02" y2="1119.62"/><line class="cls-4" x1="489.33" y1="929.64" x2="489.33" y2="1119.62"/><line class="cls-4" x1="510.65" y1="929.64" x2="510.65" y2="1119.62"/><line class="cls-4" x1="531.96" y1="929.64" x2="531.96" y2="1119.62"/><line class="cls-4" x1="553.27" y1="929.64" x2="553.27" y2="1119.62"/><polygon class="cls-5" points="606.96 481.91 627.78 404.2 417.11 347.76 417.11 61.34 47.13 61.34 47.13 528.42 230.48 528.42 259.57 608.34 606.96 481.91"/><polygon class="cls-5" points="47.13 545.18 47.13 895.85 346.39 895.85 218.75 545.18 47.13 545.18"/><polygon class="cls-5" points="698.11 1333.39 1187.35 1464.52 1244.22 1252.28 698.11 1105.95 698.11 1333.39"/><polygon class="cls-5" points="1460.16 1401.73 1460.16 1154.13 1355.77 1126.16 1293.87 1357.18 1460.16 1401.73"/><polygon class="cls-5" points="1233.08 1358.59 1203.54 1468.85 1460.16 1537.61 1460.16 1419.43 1233.08 1358.59"/><polygon class="cls-5" points="1307.27 953.81 1460.16 994.78 1460.16 1136.78 1271.77 1086.3 1307.27 953.81"/><rect class="cls-5" x="1345.98" y="970.19" width="137.17" height="208.65" transform="translate(-231.45 2076.97) rotate(-75)"/><rect class="cls-5" x="1117.34" y="897.62" width="137.17" height="231.25" transform="translate(-341.74 1810.71) rotate(-75)"/><polygon class="cls-5" points="759.39 1104.66 833.81 826.94 552.65 751.6 552.65 895.85 698.11 895.85 698.11 1088.24 759.39 1104.66"/><polygon class="cls-5" points="601.66 501.66 535.9 747.11 535.9 895.85 364.21 895.85 265.3 624.09 601.66 501.66"/><path class="cls-2" d="M1176.3,1757a70.1,70.1,0,0,0-6.43,3.73c-4.45,2.81-10.59,3.66-14.5,6.19,0,0-14.5,10.65-19.81,10.66s-19.84,2.57-22.62,5.37,14.82,7.23,30.2,8,47.57,3.79,47.57,3.79l17.07,3.59,35.73,15.28s8.66,1.38,8.66,0-6.56-13.95-6.56-13.95l8.2.82,3.64,1.66,4.19-2.52,12.28,4.16,6.16-2.81,15.1,3.87,6.69-6.16,12.3,2.77,13.41-2.27,7.56,3,5.24-1.41,10.12,0,7.26-2.54,4.47,2,8.93,0s19.88,8.61,30.21,8.59l-9.53-13.11,27.38-.63s14,7,26.57,6.36,8.93-2.26,8.93-2.26l-7-11.16,23.2,1.34s33,13.89,39.15,13.88l5.22-2.25-22-20.06s8.31-29.09,33.46-29.71l16.76,0s-24.61-8.44-39.68-2.75-48.56,27-55.26,28.13c0,0-19.14,1.45-19.14-1.07s10-1.91,10-1.91l-12-9.19v-5.66l3.76-4.88s-14.32.93-19.2,4.29-11.16,7.15-11.16,7.15-7.17,1.28-11.77-4.16l-6.89,0-9-5.85-8.59,1.26-10.07-5.82-12-1-2.31-4-12.24,1.5-10.06-6.4-11.73,2-11.47-5.28-10.33,3.66-6.71.3-6.44-5.58-12.56,4.51-10.91-4.45-12.84,6.74-9-3.33-14.48,6.3-8.15-3.45s-10.59,9.55-15.34,12.2S1176.3,1757,1176.3,1757Z" transform="translate(-242 -85.79)"/><path class="cls-2" d="M336.53,1100.37H346.9v-11.54h3V1116h-3v-12.9H336.53V1116h-3v-27.15h3Z" transform="translate(-242 -85.79)"/><path class="cls-2" d="M361,1088.83h4l7.62,27.15h-3.32l-2.15-7.81h-8.56l-2,7.81H353.3Zm2,2.19h-.07l-3.58,14.44h7.16Z" transform="translate(-242 -85.79)"/><path class="cls-2" d="M376.6,1088.83v6.86c0,3.7,1.06,4.68,5,4.68a27.12,27.12,0,0,0,4.49-.31v-11.23h3V1116h-3v-13.24a33.55,33.55,0,0,1-5.09.34c-4.72,0-7.39-1.66-7.39-7v-7.2Z" transform="translate(-242 -85.79)"/><path class="cls-2" d="M400.2,1088.83h4l7.61,27.15H408.5l-2.15-7.81h-8.56l-2,7.81h-3.32Zm2,2.19h-.07l-3.58,14.44h7.16Z" transform="translate(-242 -85.79)"/><path class="cls-2" d="M432.28,1088.83V1116h-3v-24.44h-9.13v10.75c0,6.07-.11,14-5.39,14a7.78,7.78,0,0,1-1.81-.22v-2.68a3.47,3.47,0,0,0,1.17.19c2.79,0,3-4.22,3-12.93v-11.84Z" transform="translate(-242 -85.79)"/><path class="cls-2" d="M437.18,1102.36c0-6.22,1-14.06,8.94-14.06s9,7.84,9,14.06c0,7.51-1,14.26-9,14.26S437.18,1109.87,437.18,1102.36ZM446,1091c-4.63,0-5.73,4.78-5.73,10.85,0,7.88.83,12,5.81,12s5.84-4.15,5.84-12C452,1095.84,450.83,1091,446,1091Z" transform="translate(-242 -85.79)"/><path class="cls-2" d="M306.17,1128.3c7.24,0,8.33,7.54,8.33,13.76s-.45,14.56-8.26,14.56c-5.58,0-8-3.89-8-10.45h3c.19,4.45.94,7.73,4.86,7.73,4.6,0,5.28-5.05,5.28-10.82h-7.16v-2.71h7.16c0-3.81-.72-9.35-5.28-9.35-3.51,0-4.64,2.67-4.86,6h-3C298.44,1131.73,301.23,1128.3,306.17,1128.3Z" transform="translate(-242 -85.79)"/><path class="cls-2" d="M322.41,1142.78l9.88-14h3.77l-8.67,11.35,8.94,15.8h-3.51l-7.24-13.43-3.17,4V1156h-3v-27.15h3Z" transform="translate(-242 -85.79)"/><path class="cls-2" d="M356.12,1128.83V1156h-3v-24.44H342.73V1156h-3v-27.15Z" transform="translate(-242 -85.79)"/><path class="cls-2" d="M361,1142.36c0-6.22,1-14.06,8.94-14.06s9,7.84,9,14.06c0,7.51-1.05,14.26-9,14.26S361,1149.87,361,1142.36Zm8.86-11.34c-4.63,0-5.73,4.78-5.73,10.85,0,7.88.83,12,5.81,12s5.84-4.15,5.84-12C375.79,1135.84,374.66,1131,369.87,1131Z" transform="translate(-242 -85.79)"/><path class="cls-2" d="M383.22,1136c.6-4.71,3.43-7.65,8.07-7.65,4.26,0,7.27,2.86,7.27,6.71a6.44,6.44,0,0,1-4.18,6.45c3.09.6,5.24,3.16,5.24,7.16,0,2.94-1.47,8-8.33,8-6,0-8-3.66-8.41-9.09h3c.23,4,1.4,6.37,5.47,6.37s5.13-3,5.13-5.62a5,5,0,0,0-4.94-5.2H389v-2.71h2c2.95,0,4.45-1.66,4.45-4.68s-1.66-4.64-4.45-4.64c-2.52,0-4.44,1.93-4.75,4.94Z" transform="translate(-242 -85.79)"/><path class="cls-2" d="M407.38,1128.83V1151c0,1,0,2-.07,3h.07a34.3,34.3,0,0,1,1.1-3.74l8.44-21.45h4.38V1156h-3v-21.65c0-1.39,0-2.79.07-4.14h-.07a22.11,22.11,0,0,1-1.06,4.41L408.74,1156h-4.37v-27.15Z" transform="translate(-242 -85.79)"/><path class="cls-2" d="M430,1153.26h10.37v-24.43h3v24.43h2.19v9h-2.87V1156H427v-27.15h3Z" transform="translate(-242 -85.79)"/><path class="cls-2" d="M452.13,1128.83V1151c0,1,0,2-.08,3h.08a36.43,36.43,0,0,1,1.09-3.74l8.45-21.45H466V1156h-3v-21.65c0-1.39,0-2.79.07-4.14H463a22.83,22.83,0,0,1-1.06,4.41L453.49,1156h-4.38v-27.15Z" transform="translate(-242 -85.79)"/><path class="cls-2" d="M474.71,1128.83V1151c0,1,0,2-.08,3h.08a36.43,36.43,0,0,1,1.09-3.74l8.45-21.45h4.37V1156h-3v-21.65c0-1.39,0-2.79.07-4.14h-.07a22.83,22.83,0,0,1-1.06,4.41L476.07,1156h-4.38v-27.15Z" transform="translate(-242 -85.79)"/><path class="cls-6" d="M680.7,1666.46h9.54c4.79,0,6.71,3.17,6.71,6.64,0,2.6-1.39,5.5-3.66,6,2.68,1.09,4,3,4,6.56,0,4.71-2,8.07-6.22,8.07H680.7Zm5.17,11h2.71c2.26,0,3.21-1.36,3.21-3.69s-.8-3.47-3.13-3.47h-2.79Zm0,12.29h3.31c1.93,0,2.87-1.17,2.87-4.22,0-2.68-.94-4.18-2.87-4.18h-3.31Z" transform="translate(-242 -85.79)"/><path class="cls-6" d="M705.73,1677h4.34c4.22,0,6.94,4.18,6.94,8,0,5.24-2.38,8.71-6.49,8.71h-9.95v-27.23h5.16Zm0,12.85h3c1.92,0,3-1.17,3-4.22,0-2.68-1.1-4.49-3-4.49h-3Zm20.36,3.89h-5.16v-27.23h5.16Z" transform="translate(-242 -85.79)"/><path class="cls-6" d="M738.53,1674.31c0-4.75,3-8.34,8.11-8.34,3.65,0,8.14,1.74,8.14,7.24a5.93,5.93,0,0,1-4.19,5.92c2.72.68,4.57,2.91,4.57,7,0,5.46-3,8.18-8.37,8.18-4.45,0-8.68-2-8.68-7.88h5c0,1.88.75,3.73,3.35,3.73s3.4-1.7,3.4-4.52c0-3.21-1.62-4.38-3.77-4.38H745v-3.88h1.1a3.13,3.13,0,0,0,3.39-3.47c0-1.81-.68-3.81-2.86-3.81s-3.1,1.74-3.1,4.19Z" transform="translate(-242 -85.79)"/><path class="cls-6" d="M777.55,1666.46v23.08h1.66v9.61h-5v-5.46H763v5.46h-5v-9.61h1.62c1.81-4,2.49-7.09,2.49-14.59v-8.49Zm-10.37,4.15v6.19c0,6.25-.87,9.35-2.45,12.74h7.65v-18.93Z" transform="translate(-242 -85.79)"/><path class="cls-6" d="M796.77,1666.46v4.15h-9.39V1677h8.56v4.14h-8.56v8.45h9.39v4.15H782.22v-27.23Z" transform="translate(-242 -85.79)"/><path class="cls-6" d="M811.29,1675.32v-.6c0-3.43-.87-4.6-3.06-4.6s-3.13,1.17-3.13,4.6v10.75c0,3.54.91,4.71,3.09,4.71s3.1-1.21,3.1-4.71V1684h5.16v1.17c0,4.93-1.77,9.16-8.22,9.16-6.79,0-8.41-4.26-8.41-9.09v-9.92c0-6.37,2.87-9.35,8.49-9.35,5.28,0,8.14,3,8.14,8v1.35Z" transform="translate(-242 -85.79)"/><path class="cls-6" d="M825.19,1677h4.34c4.22,0,6.94,4.18,6.94,8,0,5.24-2.38,8.71-6.49,8.71H820v-27.23h5.16Zm0,12.85h3c1.93,0,3-1.17,3-4.22,0-2.68-1.09-4.49-3-4.49h-3Z" transform="translate(-242 -85.79)"/><polyline class="cls-7" points="172.87 975.11 151.93 954.17 130.98 975.11"/><path class="cls-2" d="M847.52,804.85l76.42,20.47-3.58,13.34-76.42-20.47,3.58-13.34m-1.42-2.45-4.61,17.2,80.29,21.51,4.61-17.2L846.1,802.4Z" transform="translate(-242 -85.79)"/><polyline class="cls-8" points="1074.64 842.69 1126.75 648.21 645.73 519.32"/><line class="cls-4" x1="810.98" y1="563.6" x2="758.87" y2="758.08"/><line class="cls-4" x1="831.57" y1="569.11" x2="779.46" y2="763.59"/><line class="cls-4" x1="852.16" y1="574.63" x2="800.05" y2="769.11"/><line class="cls-4" x1="872.75" y1="580.15" x2="820.63" y2="774.63"/><line class="cls-4" x1="893.33" y1="585.66" x2="841.22" y2="780.14"/><line class="cls-4" x1="913.92" y1="591.18" x2="861.81" y2="785.66"/><line class="cls-4" x1="934.51" y1="596.7" x2="882.4" y2="791.18"/><line class="cls-4" x1="955.09" y1="602.21" x2="902.98" y2="796.69"/><line class="cls-4" x1="975.68" y1="607.73" x2="923.57" y2="802.21"/><line class="cls-4" x1="996.27" y1="613.24" x2="944.16" y2="807.72"/><line class="cls-4" x1="1016.89" y1="618.63" x2="964.74" y2="813.24"/><line class="cls-4" x1="1037.44" y1="624.28" x2="985.33" y2="818.76"/><line class="cls-8" x1="1011.39" y1="721.52" x2="784.93" y2="660.84"/><polyline class="cls-8" points="516.49 1456.61 365.94 1456.61 365.94 1307.96 330.68 1307.96 330.68 1491.85 436.91 1491.85"/><polyline class="cls-8" points="1189.85 1495.53 1205.67 1601.15 1489.67 1677.26"/><polyline class="cls-8" points="1181.42 1493.27 1197.24 1598.89 870.39 1511.29"/><polyline class="cls-7" points="537.43 1544.63 516.49 1523.68 495.55 1544.63"/><line class="cls-7" x1="516.49" y1="1523.68" x2="516.49" y2="1562.33"/><line class="cls-9" x1="495.55" y1="1513.55" x2="537.43" y2="1513.55"/><polyline class="cls-7" points="2252.26 1658.16 2273.21 1637.22 2252.26 1616.28"/><polyline class="cls-7" points="2252.26 1767.27 2273.21 1746.33 2252.26 1725.39"/><polyline class="cls-7" points="1535.4 1615.16 1509.75 1629.96 1524.56 1655.62"/><polyline class="cls-7" points="857.91 1476.95 883.56 1462.14 868.75 1436.49"/><rect class="cls-10" x="135.7" y="695.52" width="50" height="50"/><path class="cls-11" d="M402.51,799.57h-6.25V797c4.21,0,6.5-.77,7-5.35h2.53V821h-3.27Z" transform="translate(-242 -85.79)"/><rect class="cls-10" x="207.12" y="269.88" width="50" height="50"/><path class="cls-11" d="M466.46,376v-1.35c0-4.86,2.45-8.66,7.72-8.66,5,0,7.6,3.31,7.6,8.21,0,4.41-2.33,7-5.31,9.64-5.76,5.19-6.37,5.76-6.78,8.62H482v2.94H466.22c0-5.23,1-7.76,7.35-13,2.41-2,4.82-4.58,4.82-8.25,0-3-1-5.19-4.37-5.19-3.84,0-4.33,3.1-4.33,7.07Z" transform="translate(-242 -85.79)"/><rect class="cls-10" x="402.4" y="695.52" width="50" height="50"/><path class="cls-11" d="M667.26,804.08c3.8,0,6.09-1.1,6.09-5,0-2.86-1.11-4.82-4.13-4.82s-4.17,2.77-4.17,5.76H662c0-4.91,2.61-8.7,7.47-8.7,4.37,0,7.23,2.94,7.23,7.31,0,3.18-1.26,5.92-4.45,6.74,3.47.77,5.23,3.47,5.23,7.39,0,4.9-2.49,8.58-8,8.58s-8-4-8-9.36h3.22c0,3.19.78,6.42,4.78,6.42,3.23,0,4.78-2.25,4.78-5.27,0-5.15-2-6.09-6.9-6.09Z" transform="translate(-242 -85.79)"/><rect class="cls-10" x="600.38" y="811.43" width="50" height="50"/><path class="cls-11" d="M870.05,907.52h3v19.11h2.61v2.94h-2.61v7.36h-3.27v-7.36H859.07v-3Zm-8.37,19.11h8.13v-14Z" transform="translate(-242 -85.79)"/><rect class="cls-10" x="918.93" y="902.45" width="50" height="50"/><path class="cls-11" d="M1192.77,998.52v2.94h-9.89l-1.3,8.7a6.17,6.17,0,0,1,4.73-2.12c5.44,0,7.52,4.57,7.52,9.35,0,5.19-1.92,10.58-8,10.58-5.23,0-7.8-2.94-7.8-8.29h3.39c0,3.1,1,5.35,4.33,5.35s4.7-3.47,4.7-7.15c0-3.35-.74-6.9-4.9-6.9a4.16,4.16,0,0,0-4.13,2.69h-2.9l1.76-15.15Z" transform="translate(-242 -85.79)"/><rect class="cls-10" x="1147.56" y="963.72" width="50" height="50"/><path class="cls-11" d="M1406.44,1075.88c0-6.13.2-16.38,8.65-16.38a6.7,6.7,0,0,1,6.79,7h-3.23c-.12-3.06-1.64-4.08-4.09-4.08-4,0-4.78,8.21-4.94,11.44h0a5.89,5.89,0,0,1,5.43-3.64c5.27,0,7.6,4.25,7.6,9,0,6.29-3.35,10.29-7.8,10.29C1407,1089.52,1406.44,1081.88,1406.44,1075.88Zm3.59,3.22c0,5.6,1.84,7.48,4.78,7.48,3.84,0,4.49-4.17,4.49-7.15,0-3.23-1-6.25-4.74-6.25S1410,1076.41,1410,1079.1Z" transform="translate(-242 -85.79)"/><rect class="cls-10" x="1352.69" y="1020.3" width="50" height="50"/><path class="cls-11" d="M1627.78,1116.67v2.73a51,51,0,0,0-9.68,26.11h-3.68a53.46,53.46,0,0,1,10.71-25.9h-13.52v-2.94Z" transform="translate(-242 -85.79)"/><rect class="cls-10" x="1365.3" y="1238.95" width="50" height="50"/><path class="cls-11" d="M1629.84,1348.25c-3.22-.62-4.65-3.35-4.65-6.5,0-3.31,2-7,7.11-7a6.76,6.76,0,0,1,7.18,7.1c0,3-1.38,5.8-4.45,6.42v0c2.66.49,5.27,2.9,5.27,7.68,0,5.59-2.78,8.78-8,8.78-5.4,0-8-3.11-8-8.78,0-4.78,3.14-7.23,5.55-7.68Zm-2.16,7.55c0,3.48.9,6,4.62,6s4.61-2.53,4.61-6c0-3-1.18-5.92-4.61-5.92S1627.68,1352.86,1627.68,1355.8Zm.9-13.68c0,2.9,1.1,4.82,3.84,4.82s3.67-2.17,3.67-4.7-1-4.57-3.79-4.57S1628.58,1339.46,1628.58,1342.12Z" transform="translate(-242 -85.79)"/><rect class="cls-10" x="1306.85" y="1415.88" width="50" height="50"/><path class="cls-11" d="M1582,1525.26c0,6.13,0,16.42-8.53,16.42-4.33,0-7-2.77-7-7h3.31c0,2.65,1.14,4.08,3.92,4.08,4.21,0,4.78-7.06,5.11-11.44h-.08a5.84,5.84,0,0,1-5.4,3.64c-5.26,0-7.59-4.25-7.59-9,0-6.29,3.35-10.29,7.8-10.29C1581.4,1511.66,1582,1519.26,1582,1525.26Zm-8.33-10.66c-3.67,0-4.53,3.76-4.53,6.74s.77,6.66,4.57,6.66,4.78-3.06,4.78-6.13S1577.56,1514.6,1573.64,1514.6Z" transform="translate(-242 -85.79)"/><rect class="cls-10" x="927" y="1260.23" width="50" height="50"/><path class="cls-11" d="M1183,1364h-6.25v-2.62c4.21,0,6.5-.77,7-5.35h2.53v29.41H1183Z" transform="translate(-242 -85.79)"/><path class="cls-11" d="M1195.22,1371c0-5.76.53-15,8-15s8,9.11,8,15c0,6.66-.37,15.07-8,15.07S1195.22,1377.62,1195.22,1371Zm8,12.13c4.17,0,4.66-6,4.66-12.13,0-5.19-.49-12-4.66-12s-4.62,6.82-4.62,12C1198.61,1377.05,1199,1383.09,1203.23,1383.09Z" transform="translate(-242 -85.79)"/><rect class="cls-4" x="362.84" y="1138.98" width="124.44" height="80"/><line class="cls-4" x1="362.84" y1="1138.98" x2="487.29" y2="1218.98"/><line class="cls-4" x1="362.84" y1="1218.98" x2="487.29" y2="1138.98"/><rect class="cls-10" x="2335.51" y="1178.28" width="80" height="80"/><path class="cls-11" d="M2630.37,1321.22v-8.61a7.14,7.14,0,1,0-.35-8l-.92-3.41h-24.45v12.86l4.66,10h-17.52v4.28h51.43v-4.28h-15.71Zm5.71-17.14a4.29,4.29,0,1,1-4.29,4.28A4.29,4.29,0,0,1,2636.08,1304.08Zm-17.21-5.72h2.62l1.73-6.45-2.85-5,3.06-11.45h-2.65l-3.27,12.21,2.86,5Zm-7.24-2.85h2.61l1.73-6.46-2.85-5,2.3-8.59h-2.65l-2.51,9.35,2.86,5Z" transform="translate(-242 -85.79)"/><rect class="cls-10" x="1564.9" y="1178.28" width="80" height="80"/><path class="cls-11" d="M1826.9,1281.22v23.24l2,7.28,18,18v-45.7h2.87v-2.86Zm22.86,2.86v44.05l12.12-7,5-10.78v-26.27Z" transform="translate(-242 -85.79)"/><rect class="cls-10" x="398.84" y="1307.96" width="80" height="80"/><polygon class="cls-11" points="443.13 1319.39 443.13 1323.36 438.1 1327.96 434.56 1327.96 434.56 1319.39 443.13 1319.39"/><polygon class="cls-11" points="434.56 1330.82 443.13 1330.82 443.13 1376.53 440.44 1376.53 434.56 1376.53 434.56 1333.67 434.56 1330.82"/></g><g id="_01" data-name="01"><rect class="cls-12" x="47.13" y="837.01" width="299.26" height="58.84"/><polygon class="cls-13" points="346.39 837.01 218.75 486.34 47.13 486.34 47.13 837.01 346.39 837.01"/><line class="cls-14" x1="47.13" y1="837.01" x2="346.39" y2="837.01"/><polygon class="cls-15" points="218.75 486.34 47.13 486.34 47.13 837.01 47.13 895.85 346.39 895.85 346.39 837.01 218.75 486.34"/><g class="cls-16"><rect x="90.51" y="585.72" width="123.63" height="120"/><rect class="cls-17" x="90.51" y="585.72" width="123.63" height="120"/></g><rect class="cls-11" x="86.51" y="580.72" width="123.63" height="120"/><rect class="cls-18" x="86.51" y="580.72" width="123.63" height="120"/><path class="cls-19" d="M349.54,666.51c-1.85,3.74-2.83,8.19.18,11.48,6.28,6.84,17.65,5,19.68,14.08,2.45,11-7.36,18.17-12.2,21.72-4.21,3.08-11.67,8.28-10.06,19.17,1.37,9.21,18.85,17.74,18.85,26,0,13.3-21.43,27.52-21.43,27.52H328.51v-120Z" transform="translate(-242 -85.79)"/><path class="cls-19" d="M388.36,666.51s-.51,4,0,5.21c4.33,9.86,29.83,11.24,31.23,27.4,1.3,15-19,22.14-17.06,36,2.06,14.92,33.68,25.74,35.94,36.42a17.87,17.87,0,0,1-3.47,15h17.14v-120Z" transform="translate(-242 -85.79)"/></g><g id="_02" data-name="02"><polygon class="cls-13" points="47.13 469.59 47.13 2.5 417.11 2.5 417.11 288.92 627.78 345.36 606.96 423.07 259.57 549.51 230.48 469.59 47.13 469.59"/><polygon class="cls-12" points="47.13 528.42 47.13 469.59 230.48 469.59 259.57 549.51 606.96 423.07 627.78 345.36 627.78 404.2 606.96 481.91 259.57 608.34 230.48 528.42 47.13 528.42"/><polyline class="cls-14" points="47.13 469.59 230.48 469.59 259.57 549.51 606.96 423.07 627.78 345.36"/><line class="cls-14" x1="230.48" y1="469.59" x2="230.48" y2="528.42"/><line class="cls-14" x1="259.57" y1="549.51" x2="259.57" y2="608.34"/><line class="cls-14" x1="606.96" y1="423.07" x2="606.96" y2="481.91"/><polygon class="cls-15" points="47.13 469.59 47.13 2.5 417.11 2.5 417.11 288.92 627.78 345.36 627.78 404.2 606.96 481.91 259.57 608.34 230.48 528.42 47.13 528.42 47.13 469.59"/><g class="cls-16"><path d="M552.33,271.39V249.21H528.77V240H429.23v9.21H405.67v22.18s5.77,5.2,5.77,23.61-5.77,23.61-5.77,23.61v22.18h23.56V350h99.54v-9.21h23.56V318.61s-5.77-5.2-5.77-23.61S552.33,271.39,552.33,271.39Z" transform="translate(-242 -85.79)"/><path class="cls-17" d="M552.33,271.39V249.21H528.77V240H429.23v9.21H405.67v22.18s5.77,5.2,5.77,23.61-5.77,23.61-5.77,23.61v22.18h23.56V350h99.54v-9.21h23.56V318.61s-5.77-5.2-5.77-23.61S552.33,271.39,552.33,271.39Z" transform="translate(-242 -85.79)"/></g><path class="cls-11" d="M548.33,266.39V244.21H524.77V235H425.23v9.21H401.67v22.18s5.77,5.2,5.77,23.61-5.77,23.61-5.77,23.61v22.18h23.56V345h99.54v-9.21h23.56V313.61s-5.77-5.2-5.77-23.61S548.33,266.39,548.33,266.39Z" transform="translate(-242 -85.79)"/><path class="cls-18" d="M548.33,266.39V244.21H524.77V235H425.23v9.21H401.67v22.18s5.77,5.2,5.77,23.61-5.77,23.61-5.77,23.61v22.18h23.56V345h99.54v-9.21h23.56V313.61s-5.77-5.2-5.77-23.61S548.33,266.39,548.33,266.39Z" transform="translate(-242 -85.79)"/><path class="cls-19" d="M548.33,266.39V244.21H524.77V235H425.23v9.21H401.67v22.18s5.77,5.2,5.77,23.61-5.77,23.61-5.77,23.61v22.18h23.56V345h99.54v-9.21h23.56V313.61s-5.77-5.2-5.77-23.61S548.33,266.39,548.33,266.39Zm-38.35,7H478.67V249.52H510Zm-70-23.86h31.31v81H440Zm38.65,81V280.71H510v49.77Z" transform="translate(-242 -85.79)"/></g><g id="_03" data-name="03"><polygon class="cls-13" points="265.3 565.25 601.66 442.82 535.9 688.27 535.9 837.01 364.22 837.01 265.3 565.25"/><polygon class="cls-12" points="535.9 688.27 535.9 747.11 601.66 501.66 601.66 442.82 535.9 688.27"/><polygon class="cls-12" points="265.3 565.25 265.3 624.09 364.22 895.85 535.9 895.85 535.9 837.01 364.22 837.01 265.3 565.25"/><polyline class="cls-14" points="535.9 837.01 364.21 837.01 265.3 565.25"/><line class="cls-14" x1="364.22" y1="837.01" x2="364.22" y2="895.85"/><polyline class="cls-14" points="601.66 442.82 535.9 688.27 535.9 747.11"/><polygon class="cls-15" points="535.9 747.11 601.66 501.66 601.66 442.82 265.3 565.25 265.3 624.09 364.21 895.85 535.9 895.85 535.9 747.11"/><g class="cls-16"><path d="M733.5,780.26v-60l17.22,5.85L755.87,711l-77.49-26.31-3.8-1.29-15.53-5.28,8.91-19.6c2.82,1.6,9,5.31,12.27,8.74,4.27,4.53,14.63,11.3,14.63,11.3s3.85-5.1,5-6.88c1.54-2.46,5.64-10.1,5.64-10.1s-8.56-8.71-14.6-12.26a135.41,135.41,0,0,1-14-10.31l.74-1.64-3-1.37L655.9,677l-17.1-5.81-46.67,18.63,5.93,14.86,17.55-7v82.56Z" transform="translate(-242 -85.79)"/><path class="cls-17" d="M733.5,780.26v-60l17.22,5.85L755.87,711l-77.49-26.31-3.8-1.29-15.53-5.28,8.91-19.6c2.82,1.6,9,5.31,12.27,8.74,4.27,4.53,14.63,11.3,14.63,11.3s3.85-5.1,5-6.88c1.54-2.46,5.64-10.1,5.64-10.1s-8.56-8.71-14.6-12.26a135.41,135.41,0,0,1-14-10.31l.74-1.64-3-1.37L655.9,677l-17.1-5.81-46.67,18.63,5.93,14.86,17.55-7v82.56Z" transform="translate(-242 -85.79)"/></g><path class="cls-11" d="M729.5,775.26v-60l17.22,5.85L751.87,706l-77.49-26.31-3.8-1.29-15.53-5.28,8.91-19.6c2.82,1.6,9,5.31,12.27,8.74,4.27,4.53,14.63,11.3,14.63,11.3s3.85-5.1,5-6.88c1.54-2.46,5.64-10.1,5.64-10.1s-8.56-8.71-14.6-12.26a135.41,135.41,0,0,1-14-10.31l.74-1.64-3-1.37L651.9,672l-17.1-5.81-46.67,18.63,5.93,14.86,17.55-7v82.56Z" transform="translate(-242 -85.79)"/><path class="cls-18" d="M729.5,775.26v-60l17.22,5.85L751.87,706l-77.49-26.31-3.8-1.29-15.53-5.28,8.91-19.6c2.82,1.6,9,5.31,12.27,8.74,4.27,4.53,14.63,11.3,14.63,11.3s3.85-5.1,5-6.88c1.54-2.46,5.64-10.1,5.64-10.1s-8.56-8.71-14.6-12.26a135.41,135.41,0,0,1-14-10.31l.74-1.64-3-1.37L651.9,672l-17.1-5.81-46.67,18.63,5.93,14.86,17.55-7v82.56Z" transform="translate(-242 -85.79)"/><path class="cls-19" d="M674.38,679.66l-3.8-1.29-15.53-5.28,8.91-19.6c2.82,1.6,9,5.31,12.27,8.74,4.27,4.53,14.63,11.3,14.63,11.3s3.85-5.1,5-6.88c1.54-2.46,5.64-10.1,5.64-10.1s-8.56-8.71-14.6-12.26a135.41,135.41,0,0,1-14-10.31l.74-1.64-3-1.37L651.9,672l-17.1-5.81-46.67,18.63,5.93,14.86,17.55-7v82.56h16v-89l3.13-1.24,4.72,90.19h16l-4.62-88,5.73,1.95v86.1h16V694.59l4,1.36v79.31h16V701.38l4.5,1.53,2.53,72.35h16l-2.33-66.85,4.19,1.43v65.42h16v-60l17.22,5.85L751.87,706Z" transform="translate(-242 -85.79)"/></g><g id="_04" data-name="04"><polygon class="cls-13" points="552.65 778.17 552.65 692.76 833.81 768.1 759.39 1045.83 698.11 1029.4 698.11 837.01 552.65 837.01 552.65 778.17"/><polygon class="cls-12" points="759.39 1045.83 698.11 1029.4 698.11 1088.24 759.39 1104.66 833.81 826.94 833.81 768.1 759.39 1045.83"/><rect class="cls-12" x="552.65" y="837.01" width="145.45" height="58.84"/><polyline class="cls-14" points="552.65 837.01 698.11 837.01 698.11 895.85"/><polyline class="cls-14" points="698.11 1029.4 759.39 1045.83 833.81 768.1"/><line class="cls-14" x1="759.39" y1="1045.83" x2="759.39" y2="1104.66"/><polygon class="cls-15" points="552.65 837.01 552.65 692.76 833.81 768.1 833.81 826.94 759.39 1104.66 698.11 1088.24 698.11 895.85 552.65 895.85 552.65 837.01"/><g class="cls-16"><rect x="630.18" y="669.21" width="123.63" height="120"/><rect class="cls-17" x="630.18" y="669.21" width="123.63" height="120"/></g><rect class="cls-11" x="626.18" y="664.21" width="123.63" height="120"/><rect class="cls-18" x="626.18" y="664.21" width="123.63" height="120"/><polygon class="cls-19" points="729.43 664.21 714.91 688.08 718.56 714.69 708.47 702.76 698.1 737.19 652.03 765.15 689.16 726.69 693.52 677.13 700.64 689.84 704.56 664.21 626.18 664.21 626.18 784.21 749.82 784.21 749.82 664.21 729.43 664.21"/></g><g id="_05" data-name="05"><rect class="cls-13" x="1117.34" y="838.78" width="137.17" height="231.25" transform="translate(-284.91 1767.1) rotate(-75)"/><polygon class="cls-12" points="814.49 963.77 1037.86 1023.63 1073.36 891.13 1073.36 832.29 1037.86 964.79 814.49 904.94 814.49 963.77"/><polyline class="cls-14" points="1073.36 832.29 1037.86 964.79 814.49 904.94"/><line class="cls-14" x1="1037.86" y1="964.79" x2="1037.86" y2="1023.63"/><polygon class="cls-15" points="1073.36 832.29 849.99 772.44 814.49 904.94 814.49 963.77 1037.86 1023.63 1073.36 891.13 1073.36 832.29"/><g class="cls-16"><path d="M1127.21,966.11a15,15,0,0,0,9-27h12a15,15,0,1,0,18,0h16v-3.74H1195v3.43h4.45v-3.43h12.78v3.74h16a15,15,0,1,0,18,0h12a15,15,0,0,0,9,27v-120h-62v8h7v76.81h-12.78V927.5H1195v3.42h-12.77V854.11h7v-8h-62Z" transform="translate(-242 -85.79)"/><path class="cls-17" d="M1127.21,966.11a15,15,0,0,0,9-27h12a15,15,0,1,0,18,0h16v-3.74H1195v3.43h4.45v-3.43h12.78v3.74h16a15,15,0,1,0,18,0h12a15,15,0,0,0,9,27v-120h-62v8h7v76.81h-12.78V927.5H1195v3.42h-12.77V854.11h7v-8h-62Z" transform="translate(-242 -85.79)"/></g><path class="cls-11" d="M1123.21,961.11a15,15,0,0,0,9-27h12a15,15,0,1,0,18,0h16v-3.74H1191v3.43h4.45v-3.43h12.78v3.74h16a15,15,0,1,0,18,0h12a15,15,0,0,0,9,27v-120h-62v8h7v76.81h-12.78V922.5H1191v3.42h-12.77V849.11h7v-8h-62Z" transform="translate(-242 -85.79)"/><path class="cls-18" d="M1123.21,961.11a15,15,0,0,0,9-27h12a15,15,0,1,0,18,0h16v-3.74H1191v3.43h4.45v-3.43h12.78v3.74h16a15,15,0,1,0,18,0h12a15,15,0,0,0,9,27v-120h-62v8h7v76.81h-12.78V922.5H1191v3.42h-12.77V849.11h7v-8h-62Z" transform="translate(-242 -85.79)"/><path class="cls-19" d="M1263.21,850.54v-9.43h-62v8h7v76.81h-12.78V922.5H1191v3.42h-12.77V849.11h7v-8h-62v9.43h45v2h-45v12.19h45v2h-45v12.19h45v2h-45v12.2h45v2h-45v12.19h45v2h-45V921.5h45v2h-45v37.61a15,15,0,0,0,9-27h12a15,15,0,1,0,18,0h16v-3.74H1191v3.43h4.45v-3.43h12.78v3.74h16a15,15,0,1,0,18,0h12a15,15,0,0,0,9,27V923.5h-45v-2h45V909.31h-45v-2h45V895.12h-45v-2h45v-12.2h-45v-2h45V866.73h-45v-2h45V852.54h-45v-2Z" transform="translate(-242 -85.79)"/></g><g id="_06" data-name="06"><rect class="cls-13" x="1345.98" y="911.35" width="137.17" height="208.65" transform="translate(-174.61 2033.37) rotate(-75)"/><polygon class="cls-12" points="1054.04 969.13 1255.58 1023.13 1291.08 890.63 1291.08 949.47 1255.58 1081.97 1054.04 1027.96 1054.04 969.13"/><polyline class="cls-14" points="1291.08 890.63 1255.58 1023.13 1054.04 969.13"/><line class="cls-14" x1="1255.58" y1="1023.13" x2="1255.58" y2="1081.97"/><polygon class="cls-15" points="1054.04 969.13 1089.55 836.63 1291.08 890.63 1291.08 949.47 1255.58 1081.97 1054.04 1027.96 1054.04 969.13"/><g class="cls-16"><path d="M1505.64,965.9l6.72-3-25.43-57-2,.9-.38-2-7.23,1.36-10.2-.24-6.72,3-2.58-3.6-7,2.4-6.18,1.65V905h-7.36v3.51l-.89.4.89,2-7.08-.59.9-2.63-2-.7-.59-1.7h0V905h-7.36v3.7l-6.24-2.78-7.72,1.79-7-2.4-2.58,3.6-6.72-3-10,.24-7.23-1.36-.4,2.11-2.21-1-25.43,57,6.72,3,17-38-7.15,37.73,6.64,1.26V1025h122.06V966.63l5.18-1-5.18-27.35v-5.52Z" transform="translate(-242 -85.79)"/><path class="cls-17" d="M1505.64,965.9l6.72-3-25.43-57-2,.9-.38-2-7.23,1.36-10.2-.24-6.72,3-2.58-3.6-7,2.4-6.18,1.65V905h-7.36v3.51l-.89.4.89,2-7.08-.59.9-2.63-2-.7-.59-1.7h0V905h-7.36v3.7l-6.24-2.78-7.72,1.79-7-2.4-2.58,3.6-6.72-3-10,.24-7.23-1.36-.4,2.11-2.21-1-25.43,57,6.72,3,17-38-7.15,37.73,6.64,1.26V1025h122.06V966.63l5.18-1-5.18-27.35v-5.52Z" transform="translate(-242 -85.79)"/></g><path class="cls-11" d="M1501.64,960.9l6.72-3-25.43-57-2,.9-.38-2-7.23,1.36-10.2-.24-6.72,3-2.58-3.6-7,2.4-6.18,1.65V900h-7.36v3.51l-.89.4.89,2-7.08-.59.9-2.63-2-.7-.59-1.7h0V900h-7.36v3.7l-6.24-2.78-7.72,1.79-7-2.4-2.58,3.6-6.72-3-10,.24-7.23-1.36-.4,2.11-2.21-1-25.43,57,6.72,3,17-38-7.15,37.73,6.64,1.26V1020h122.06V961.63l5.18-1-5.18-27.35v-5.52Z" transform="translate(-242 -85.79)"/><path class="cls-18" d="M1501.64,960.9l6.72-3-25.43-57-2,.9-.38-2-7.23,1.36-10.2-.24-6.72,3-2.58-3.6-7,2.4-6.18,1.65V900h-7.36v3.51l-.89.4.89,2-7.08-.59.9-2.63-2-.7-.59-1.7h0V900h-7.36v3.7l-6.24-2.78-7.72,1.79-7-2.4-2.58,3.6-6.72-3-10,.24-7.23-1.36-.4,2.11-2.21-1-25.43,57,6.72,3,17-38-7.15,37.73,6.64,1.26V1020h122.06V961.63l5.18-1-5.18-27.35v-5.52Z" transform="translate(-242 -85.79)"/><rect class="cls-11" x="1122.8" y="840.13" width="122.06" height="94.08"/><polygon class="cls-19" points="1151.63 818.12 1144.91 815.13 1127.63 853.87 1134.91 815.37 1127.68 814 1127.28 816.11 1125.07 815.13 1099.64 872.11 1106.36 875.11 1123.31 837.13 1116.16 874.86 1123.39 876.23 1123.81 874.04 1126.2 875.11 1151.63 818.12"/><rect class="cls-19" x="1358.45" y="927.23" width="62.19" height="7.36" transform="translate(-185.73 1854.97) rotate(-70.96)"/><polygon class="cls-19" points="1266.36 872.11 1240.93 815.13 1238.9 816.03 1238.52 814 1231.29 815.37 1238.72 854.65 1221.09 815.13 1214.37 818.12 1239.8 875.11 1242.38 873.95 1242.81 876.23 1250.04 874.86 1243.04 837.91 1259.64 875.11 1266.36 872.11"/><rect class="cls-19" x="1456.78" y="899.81" width="7.36" height="62.19" transform="translate(-465.78 441.53) rotate(-19.04)"/><polygon class="cls-19" points="1198.66 814.21 1191.3 814.21 1191.3 817.72 1190.4 818.12 1191.3 820.13 1191.3 840.08 1184.22 819.55 1185.12 816.92 1183.07 816.21 1182.48 814.52 1182.48 814.52 1182.48 814.21 1175.12 814.21 1175.12 817.91 1168.88 815.13 1143.45 872.11 1150.17 875.11 1175.12 819.18 1175.12 823.35 1157.88 873.31 1164.84 875.71 1175.12 845.9 1175.12 876.02 1182.48 876.02 1182.48 837.07 1191.3 862.63 1191.3 876.02 1198.66 876.02 1198.66 874.73 1202.77 873.31 1198.66 861.4 1198.66 836.62 1215.83 875.11 1222.55 872.11 1198.66 818.57 1198.66 814.21"/><rect class="cls-19" x="1170.83" y="885.48" width="11" height="24"/><rect class="cls-19" x="1185.83" y="885.48" width="11" height="24"/></g><g id="_07" data-name="07"><polygon class="cls-13" points="1271.77 1027.46 1307.27 894.97 1460.16 935.94 1460.16 1077.94 1271.77 1027.46"/><polygon class="cls-12" points="1271.77 1027.46 1460.16 1077.94 1460.16 1136.78 1271.77 1086.3 1271.77 1027.46"/><line class="cls-14" x1="1460.16" y1="1077.94" x2="1271.77" y2="1027.46"/><polygon class="cls-15" points="1271.77 1027.46 1307.27 894.97 1460.16 935.94 1460.16 1077.94 1460.16 1136.78 1271.77 1086.3 1271.77 1027.46"/><polygon class="cls-20" points="1316.47 941.42 1313.62 962.39 1303.03 964.9 1313.75 967.45 1316.47 982.21 1319.19 967.49 1330.69 964.9 1319.32 962.35 1316.47 941.42"/><polygon class="cls-20" points="1441.6 940.27 1438.76 919.34 1435.91 940.31 1425.31 942.83 1436.03 945.38 1438.76 960.13 1441.47 945.41 1452.97 942.83 1441.6 940.27"/><polygon class="cls-20" points="1341.89 898.65 1343.65 889.11 1351.11 887.43 1343.74 885.78 1341.89 872.21 1340.05 885.8 1333.18 887.43 1340.13 889.08 1341.89 898.65"/><g class="cls-16"><polygon points="1437.56 910.72 1395.26 915.89 1377.02 877.21 1368.99 919.27 1326.44 924.59 1364.02 945.26 1356.01 987.21 1387.15 957.99 1424.89 978.76 1406.53 939.82 1437.56 910.72"/><polygon class="cls-17" points="1437.56 910.72 1395.26 915.89 1377.02 877.21 1368.99 919.27 1326.44 924.59 1364.02 945.26 1356.01 987.21 1387.15 957.99 1424.89 978.76 1406.53 939.82 1437.56 910.72"/></g><polygon class="cls-11" points="1433.56 905.72 1391.26 910.89 1373.02 872.21 1364.99 914.27 1322.44 919.59 1360.02 940.26 1352.01 982.21 1383.15 952.99 1420.89 973.76 1402.53 934.82 1433.56 905.72"/><polygon class="cls-18" points="1433.56 905.72 1391.26 910.89 1373.02 872.21 1364.99 914.27 1322.44 919.59 1360.02 940.26 1352.01 982.21 1383.15 952.99 1420.89 973.76 1402.53 934.82 1433.56 905.72"/><polygon class="cls-19" points="1319.32 962.35 1330.69 964.9 1319.19 967.49 1316.47 982.21 1313.75 967.45 1303.03 964.9 1313.62 962.39 1316.47 941.42 1319.32 962.35"/><polygon class="cls-19" points="1441.6 940.27 1452.97 942.83 1441.47 945.41 1438.76 960.13 1436.03 945.38 1425.31 942.83 1435.9 940.31 1438.76 919.34 1441.6 940.27"/><polygon class="cls-19" points="1343.74 885.78 1351.11 887.43 1343.65 889.11 1341.89 898.65 1340.13 889.08 1333.18 887.43 1340.05 885.8 1341.89 872.21 1343.74 885.78"/><polygon class="cls-19" points="1352.01 982.21 1360.02 940.26 1322.44 919.59 1364.99 914.27 1373.02 872.21 1391.26 910.89 1433.56 905.72 1402.53 934.82 1420.89 973.76 1383.15 952.99 1352.01 982.21"/><polygon class="cls-11" points="1371.75 921.49 1347.91 924.47 1368.97 936.06 1364.48 959.54 1381.92 943.18 1403.14 954.86 1392.82 932.96 1410.23 916.63 1386.49 919.53 1376.27 897.86 1371.75 921.49"/></g><g id="_08" data-name="08"><polygon class="cls-13" points="1460.16 1342.89 1460.16 1095.29 1355.77 1067.32 1293.87 1298.34 1460.16 1342.89"/><polygon class="cls-12" points="1293.87 1298.34 1293.87 1357.18 1460.16 1401.73 1460.16 1342.89 1293.87 1298.34"/><line class="cls-14" x1="1293.87" y1="1298.34" x2="1460.16" y2="1342.89"/><polygon class="cls-15" points="1460.16 1095.29 1355.77 1067.32 1293.87 1298.34 1293.87 1357.18 1460.16 1401.73 1460.16 1095.29"/><g class="cls-16"><rect x="1330.13" y="1115.45" width="101.76" height="140"/><rect class="cls-17" x="1330.13" y="1115.45" width="101.76" height="140"/></g><rect class="cls-11" x="1326.13" y="1110.45" width="101.76" height="140"/><rect class="cls-18" x="1326.13" y="1110.45" width="101.76" height="140"/><rect class="cls-19" x="1549.01" y="1215.36" width="140" height="101.76" transform="translate(2643.26 -438.56) rotate(90)"/><path class="cls-11" d="M1645.44,1308.93h-52.85v-85.37h52.85Zm-48.79-4.06h44.72v-77.25h-44.72Z" transform="translate(-242 -85.79)"/><rect class="cls-11" x="1602.75" y="1260.15" width="32.52" height="12.2" transform="translate(2643.26 -438.56) rotate(90)"/><path class="cls-11" d="M1662.47,1227.3c2.12.13,3.55-.37,4.24-1.51a3.35,3.35,0,0,0-.13-3.45,4.12,4.12,0,0,0-3.55-1.64,8.32,8.32,0,0,0-5.79,2.51,4.35,4.35,0,0,1-1.07-2.85,5.31,5.31,0,0,1,1.14-2.82,9.59,9.59,0,0,0,5.16,2.12c2.12.13,3.55-.37,4.24-1.51a3.35,3.35,0,0,0-.13-3.45,4.12,4.12,0,0,0-3.55-1.64,8.39,8.39,0,0,0-5.79,2.5,4.37,4.37,0,0,1-1.07-2.86,5,5,0,0,1,1.45-3.21h.34a8.62,8.62,0,0,0,2.9-.49c.71-.26,4.33-1.68,4.81-4.76a3.48,3.48,0,0,0-.86-3.19,3.35,3.35,0,0,0-3-.6c-1.27.26-3.06,1.24-4.39,4.41a9.22,9.22,0,0,0-.71,3.63,5,5,0,0,1-3.17,1.47,5.35,5.35,0,0,1-2.82-1.14,9.51,9.51,0,0,0,2.12-5.15c.14-2.13-.37-3.56-1.51-4.25a3.37,3.37,0,0,0-3.45.13,4.14,4.14,0,0,0-1.64,3.55,8.31,8.31,0,0,0,2.51,5.79,4.51,4.51,0,0,1-2.87,1.07,5.35,5.35,0,0,1-2.82-1.14,9.44,9.44,0,0,0,2.12-5.15c.14-2.13-.37-3.56-1.5-4.25a3.39,3.39,0,0,0-3.46.13,4.14,4.14,0,0,0-1.63,3.55,8.3,8.3,0,0,0,2.5,5.79,4.48,4.48,0,0,1-2.86,1.07,5.28,5.28,0,0,1-2.82-1.14,9.59,9.59,0,0,0,2.12-5.15c.13-2.13-.38-3.56-1.51-4.25a3.37,3.37,0,0,0-3.45.13,4.13,4.13,0,0,0-1.64,3.55,8.31,8.31,0,0,0,2.51,5.79,4.36,4.36,0,0,1-2.87,1.07,5.31,5.31,0,0,1-2.82-1.14,9.59,9.59,0,0,0,2.12-5.15c.13-2.13-.37-3.56-1.51-4.25a3.37,3.37,0,0,0-3.45.13,4.12,4.12,0,0,0-1.64,3.55,8.31,8.31,0,0,0,2.51,5.79,4.32,4.32,0,0,1-2.87,1.07,5.35,5.35,0,0,1-2.82-1.14,9.51,9.51,0,0,0,2.12-5.15c.14-2.13-.37-3.56-1.5-4.25a3.37,3.37,0,0,0-3.46.13,4.13,4.13,0,0,0-1.63,3.55,8.26,8.26,0,0,0,2.5,5.79,4.51,4.51,0,0,1-2.87,1.07,5.28,5.28,0,0,1-2.81-1.14,9.62,9.62,0,0,0,2.12-5.16c0-.79.2-3.2-1.51-4.24a3.35,3.35,0,0,0-3.45.13,4.13,4.13,0,0,0-1.64,3.55,8.35,8.35,0,0,0,2.5,5.79,4.37,4.37,0,0,1-2.86,1.07,5.31,5.31,0,0,1-2.82-1.14,9.59,9.59,0,0,0,2.12-5.15c.13-2.13-.37-3.56-1.51-4.25a3.35,3.35,0,0,0-3.45.13,4.12,4.12,0,0,0-1.64,3.55,8.31,8.31,0,0,0,2.51,5.79,4.53,4.53,0,0,1-2.87,1.07,5.35,5.35,0,0,1-2.82-1.14,9.51,9.51,0,0,0,2.12-5.16c.14-2.12-.37-3.55-1.5-4.24a3.37,3.37,0,0,0-3.46.13,4.13,4.13,0,0,0-1.64,3.55,8.31,8.31,0,0,0,2.51,5.79,4.36,4.36,0,0,1-2.87,1.07,5.28,5.28,0,0,1-2.81-1.14,9.49,9.49,0,0,0,2.11-5.16c.14-2.12-.37-3.55-1.5-4.24a3.37,3.37,0,0,0-3.46.13,4.15,4.15,0,0,0-1.63,3.55,8.3,8.3,0,0,0,2.5,5.79,4.35,4.35,0,0,1-2.87,1.07,5,5,0,0,1-3.22-1.47,9.58,9.58,0,0,0-.71-3.63c-1.34-3.17-3.13-4.15-4.39-4.41a3.34,3.34,0,0,0-3,.6,3.51,3.51,0,0,0-.86,3.19c.48,3.07,4.09,4.5,4.81,4.76a8.6,8.6,0,0,0,2.89.49h.34a5,5,0,0,1,1.46,3.15,5.35,5.35,0,0,1-1.14,2.82,9.54,9.54,0,0,0-5.16-2.12c-2.12-.13-3.55.37-4.24,1.51a3.35,3.35,0,0,0,.13,3.45,4.13,4.13,0,0,0,3.54,1.64,8.36,8.36,0,0,0,5.8-2.51,4.43,4.43,0,0,1,1.07,2.87,5.35,5.35,0,0,1-1.14,2.82,9.47,9.47,0,0,0-5.16-2.12c-2.12-.13-3.55.37-4.24,1.5a3.37,3.37,0,0,0,.13,3.46,4.12,4.12,0,0,0,3.54,1.63,8.29,8.29,0,0,0,5.79-2.5,4.39,4.39,0,0,1,1.08,2.87,5.28,5.28,0,0,1-1.14,2.81,9.62,9.62,0,0,0-5.16-2.12c-2.12-.13-3.55.38-4.24,1.51a3.35,3.35,0,0,0,.13,3.45,4.1,4.1,0,0,0,3.54,1.64,8.35,8.35,0,0,0,5.79-2.5,4.36,4.36,0,0,1,1.08,2.86,5.31,5.31,0,0,1-1.14,2.82,9.62,9.62,0,0,0-5.16-2.12c-2.12-.13-3.55.37-4.24,1.51a3.35,3.35,0,0,0,.13,3.45,4.1,4.1,0,0,0,3.54,1.64,8.22,8.22,0,0,0,5.79-2.51,4.39,4.39,0,0,1,1.08,2.87,5.35,5.35,0,0,1-1.14,2.82,9.54,9.54,0,0,0-5.16-2.12c-2.12-.14-3.55.37-4.24,1.5a3.37,3.37,0,0,0,.13,3.46,4.13,4.13,0,0,0,3.54,1.64,8.3,8.3,0,0,0,5.79-2.51,4.39,4.39,0,0,1,1.08,2.87,5.28,5.28,0,0,1-1.14,2.81,9.52,9.52,0,0,0-5.16-2.11c-2.12-.14-3.55.37-4.24,1.5a3.35,3.35,0,0,0,.13,3.45,4.1,4.1,0,0,0,3.54,1.64,8.35,8.35,0,0,0,5.79-2.5,4.38,4.38,0,0,1,1.08,2.86,5.31,5.31,0,0,1-1.14,2.82,9.62,9.62,0,0,0-5.16-2.12c-2.12-.13-3.55.37-4.24,1.51a3.35,3.35,0,0,0,.13,3.45,4.1,4.1,0,0,0,3.54,1.64,8.3,8.3,0,0,0,5.79-2.51,4.39,4.39,0,0,1,1.08,2.87,5.35,5.35,0,0,1-1.14,2.82,9.54,9.54,0,0,0-5.16-2.12c-2.12-.14-3.55.37-4.24,1.5a3.37,3.37,0,0,0,.13,3.46,4.13,4.13,0,0,0,3.54,1.64,8.3,8.3,0,0,0,5.79-2.51,4.39,4.39,0,0,1,1.08,2.87,5.35,5.35,0,0,1-1.14,2.82,9.47,9.47,0,0,0-5.16-2.12c-2.13-.14-3.55.37-4.24,1.5a3.37,3.37,0,0,0,.13,3.46,4.12,4.12,0,0,0,3.54,1.63,8.35,8.35,0,0,0,5.79-2.5,4.38,4.38,0,0,1,1.08,2.86,5.28,5.28,0,0,1-1.14,2.82,9.62,9.62,0,0,0-5.16-2.12c-2.13-.13-3.55.38-4.24,1.51a3.35,3.35,0,0,0,.13,3.45,4.1,4.1,0,0,0,3.54,1.64,8.22,8.22,0,0,0,5.79-2.51,4.39,4.39,0,0,1,1.08,2.87,5.35,5.35,0,0,1-1.14,2.82,9.62,9.62,0,0,0-5.16-2.12c-2.13-.14-3.55.37-4.24,1.51a3.35,3.35,0,0,0,.13,3.45,4.1,4.1,0,0,0,3.54,1.64,8.24,8.24,0,0,0,5.79-2.51,4.36,4.36,0,0,1,1.08,2.85,5.31,5.31,0,0,1-1.14,2.82,9.62,9.62,0,0,0-5.16-2.12c-2.13-.13-3.55.37-4.24,1.51a3.35,3.35,0,0,0,.13,3.45,4.1,4.1,0,0,0,3.54,1.64,8.25,8.25,0,0,0,5.8-2.51,4.35,4.35,0,0,1,1.07,2.85,5.31,5.31,0,0,1-1.14,2.82,9.62,9.62,0,0,0-5.16-2.12c-2.13-.14-3.55.37-4.24,1.51a3.35,3.35,0,0,0,.13,3.45,4.1,4.1,0,0,0,3.54,1.64,8.22,8.22,0,0,0,5.8-2.51,4.35,4.35,0,0,1,1.07,2.86,5.28,5.28,0,0,1-1.14,2.81,9.62,9.62,0,0,0-5.16-2.12c-2.13-.13-3.55.38-4.24,1.51a3.35,3.35,0,0,0,.13,3.45,4.1,4.1,0,0,0,3.54,1.64,8.22,8.22,0,0,0,5.79-2.5,4.39,4.39,0,0,1,1.08,2.87,5,5,0,0,1-1.46,3.21,8.56,8.56,0,0,0-3.23.47c-.72.26-4.33,1.69-4.81,4.76a3.48,3.48,0,0,0,.86,3.19,2.93,2.93,0,0,0,2,.71,5.54,5.54,0,0,0,1-.11c1.26-.26,3-1.23,4.39-4.41a9.58,9.58,0,0,0,.71-3.63,5,5,0,0,1,3.17-1.47,5.35,5.35,0,0,1,2.82,1.14,9.44,9.44,0,0,0-2.12,5.16c-.14,2.12.37,3.55,1.5,4.24a3.37,3.37,0,0,0,3.46-.13,4.14,4.14,0,0,0,1.63-3.55,8.3,8.3,0,0,0-2.5-5.79,4.19,4.19,0,0,1,2.87-1.07,5.28,5.28,0,0,1,2.81,1.14,9.59,9.59,0,0,0-2.12,5.16c-.13,2.12.38,3.55,1.51,4.24a3.35,3.35,0,0,0,3.45-.13,4.12,4.12,0,0,0,1.64-3.55,8.35,8.35,0,0,0-2.5-5.79,4.22,4.22,0,0,1,2.86-1.07,5.35,5.35,0,0,1,2.82,1.14,9.62,9.62,0,0,0-2.12,5.16c-.13,2.12.37,3.55,1.51,4.24a3.35,3.35,0,0,0,3.45-.13,4.12,4.12,0,0,0,1.64-3.55,8.31,8.31,0,0,0-2.51-5.79,4.16,4.16,0,0,1,2.87-1.07,5.35,5.35,0,0,1,2.82,1.14,9.44,9.44,0,0,0-2.12,5.16c-.14,2.12.37,3.55,1.5,4.24a3.37,3.37,0,0,0,3.46-.13,4.13,4.13,0,0,0,1.63-3.55,8.26,8.26,0,0,0-2.5-5.79,4.26,4.26,0,0,1,2.87-1.07,5.28,5.28,0,0,1,2.81,1.14,9.62,9.62,0,0,0-2.12,5.16c-.13,2.12.38,3.55,1.51,4.24a3.35,3.35,0,0,0,3.45-.13,4.11,4.11,0,0,0,1.64-3.55,8.3,8.3,0,0,0-2.5-5.78,4.18,4.18,0,0,1,2.86-1.08,5.31,5.31,0,0,1,2.82,1.14,9.59,9.59,0,0,0-2.12,5.16c-.13,2.12.37,3.55,1.51,4.24a3.35,3.35,0,0,0,3.45-.13,4.12,4.12,0,0,0,1.64-3.55,8.31,8.31,0,0,0-2.51-5.79,4.24,4.24,0,0,1,2.87-1.07,5.35,5.35,0,0,1,2.82,1.14,9.51,9.51,0,0,0-2.12,5.16c-.14,2.12.37,3.55,1.5,4.24a3.37,3.37,0,0,0,3.46-.13,4.16,4.16,0,0,0,1.64-3.55,8.27,8.27,0,0,0-2.51-5.78,4.22,4.22,0,0,1,2.87-1.08,5.28,5.28,0,0,1,2.81,1.14,9.49,9.49,0,0,0-2.11,5.16c-.14,2.12.37,3.55,1.5,4.24a3.35,3.35,0,0,0,3.45-.13,4.12,4.12,0,0,0,1.64-3.55,8.26,8.26,0,0,0-2.5-5.78,4.21,4.21,0,0,1,2.86-1.08,5.28,5.28,0,0,1,2.82,1.14,9.59,9.59,0,0,0-2.12,5.16c-.13,2.12.37,3.55,1.51,4.24a3,3,0,0,0,1.57.42,3.52,3.52,0,0,0,1.88-.55,4.12,4.12,0,0,0,1.64-3.55,8.27,8.27,0,0,0-2.51-5.78,4.38,4.38,0,0,1,2.87-1.08,5,5,0,0,1,3.23,1.47,9.22,9.22,0,0,0,.71,3.63c1.33,3.17,3.12,4.15,4.39,4.41a5.54,5.54,0,0,0,1,.11,2.93,2.93,0,0,0,2-.71,3.57,3.57,0,0,0,.86-3.19c-.48-3.07-4.09-4.5-4.81-4.76a8.8,8.8,0,0,0-3.23-.48,5,5,0,0,1-1.46-3.15,5.35,5.35,0,0,1,1.14-2.82,9.51,9.51,0,0,0,5.15,2.12c2.13.14,3.56-.37,4.25-1.5a3.37,3.37,0,0,0-.13-3.46,4.13,4.13,0,0,0-3.55-1.64,8.19,8.19,0,0,0-5.79,2.51,4.38,4.38,0,0,1-1.07-2.87,5.28,5.28,0,0,1,1.14-2.81,9.5,9.5,0,0,0,5.15,2.11c2.13.14,3.56-.37,4.25-1.5a3.37,3.37,0,0,0-.13-3.46,4.13,4.13,0,0,0-3.55-1.63,8.26,8.26,0,0,0-5.79,2.5,4.37,4.37,0,0,1-1.07-2.86,5.28,5.28,0,0,1,1.14-2.82,9.59,9.59,0,0,0,5.16,2.12c2.12.14,3.55-.38,4.24-1.51a3.35,3.35,0,0,0-.13-3.45,4.12,4.12,0,0,0-3.55-1.64,8.29,8.29,0,0,0-5.79,2.51,4.38,4.38,0,0,1-1.07-2.87,5.35,5.35,0,0,1,1.14-2.82,9.51,9.51,0,0,0,5.15,2.12c2.13.14,3.56-.37,4.25-1.51a3.35,3.35,0,0,0-.13-3.45,4.13,4.13,0,0,0-3.55-1.64,8.31,8.31,0,0,0-5.79,2.51,4.38,4.38,0,0,1-1.07-2.87,5.35,5.35,0,0,1,1.14-2.82,9.47,9.47,0,0,0,5.16,2.12c.79,0,3.2.2,4.24-1.5a3.37,3.37,0,0,0-.13-3.46,4.15,4.15,0,0,0-3.55-1.63,8.43,8.43,0,0,0-5.79,2.5,4.38,4.38,0,0,1-1.07-2.87,5.28,5.28,0,0,1,1.14-2.81,9.59,9.59,0,0,0,5.16,2.12c2.12.13,3.55-.38,4.24-1.51a3.35,3.35,0,0,0-.13-3.45,4.12,4.12,0,0,0-3.55-1.64,8.39,8.39,0,0,0-5.79,2.5,4.35,4.35,0,0,1-1.07-2.86,5.31,5.31,0,0,1,1.14-2.82,9.59,9.59,0,0,0,5.16,2.12c2.12.13,3.55-.37,4.24-1.51a3.35,3.35,0,0,0-.13-3.45,4.13,4.13,0,0,0-3.55-1.64,8.36,8.36,0,0,0-5.79,2.51,4.38,4.38,0,0,1-1.07-2.87,5.35,5.35,0,0,1,1.14-2.82,9.51,9.51,0,0,0,5.16,2.12c2.12.14,3.55-.37,4.24-1.5a3.37,3.37,0,0,0-.13-3.46A4.17,4.17,0,0,0,1663,1259a8.4,8.4,0,0,0-5.79,2.51,4.38,4.38,0,0,1-1.07-2.87,5.28,5.28,0,0,1,1.14-2.81,9.59,9.59,0,0,0,5.16,2.12c2.12.13,3.55-.38,4.24-1.51a3.35,3.35,0,0,0-.13-3.45,4.12,4.12,0,0,0-3.55-1.64,8.43,8.43,0,0,0-5.79,2.5,4.37,4.37,0,0,1-1.07-2.86,5.31,5.31,0,0,1,1.14-2.82,9.59,9.59,0,0,0,5.16,2.12c2.12.13,3.55-.37,4.24-1.51a3.35,3.35,0,0,0-.13-3.45,4.13,4.13,0,0,0-3.55-1.64,8.36,8.36,0,0,0-5.79,2.51,4.38,4.38,0,0,1-1.07-2.87,5.35,5.35,0,0,1,1.14-2.82,9.51,9.51,0,0,0,5.16,2.12c2.12.13,3.55-.37,4.24-1.5a3.37,3.37,0,0,0-.13-3.46A4.13,4.13,0,0,0,1663,1236a8.28,8.28,0,0,0-5.79,2.51,4.33,4.33,0,0,1-1.07-2.85,5.35,5.35,0,0,1,1.14-2.82,9.59,9.59,0,0,0,5.16,2.12c2.12.13,3.55-.37,4.24-1.51a3.35,3.35,0,0,0-.13-3.45,4.12,4.12,0,0,0-3.55-1.64,8.28,8.28,0,0,0-5.79,2.51,4.35,4.35,0,0,1-1.07-2.85,5.31,5.31,0,0,1,1.14-2.82A9.59,9.59,0,0,0,1662.47,1227.3Zm.52-5.24a3.06,3.06,0,0,1,2.45,1,2,2,0,0,1,.11,2c-.41.66-1.42,1-3,.85a8.2,8.2,0,0,1-4.33-1.77A6.93,6.93,0,0,1,1663,1222.06Zm0-7.64a3.06,3.06,0,0,1,2.45,1,2,2,0,0,1,.11,2c-.41.66-1.41,1-3,.85a8.14,8.14,0,0,1-4.33-1.78A7,7,0,0,1,1663,1214.42Zm-4.36-9c1.11-2.62,2.47-3.4,3.41-3.59a3.53,3.53,0,0,1,.74-.09,1.57,1.57,0,0,1,1.11.36,2.27,2.27,0,0,1,.43,2c-.37,2.37-3.56,3.57-3.92,3.7a7.29,7.29,0,0,1-2.37.41A8,8,0,0,1,1658.63,1205.39Zm-81,2.34c-.37-.13-3.56-1.33-3.93-3.7a2.33,2.33,0,0,1,.43-2,1.6,1.6,0,0,1,1.12-.35,3.38,3.38,0,0,1,.73.08c1,.19,2.31,1,3.41,3.6a7.87,7.87,0,0,1,.61,2.74A7,7,0,0,1,1577.63,1207.73Zm-2.59,10.85a3.05,3.05,0,0,1-2.45-1,2,2,0,0,1-.11-2c.35-.58,1.16-.87,2.41-.87l.59,0a8.12,8.12,0,0,1,4.33,1.77A7,7,0,0,1,1575,1218.58Zm0,7.65a2.85,2.85,0,0,1-2.45-1,2,2,0,0,1-.11-2c.35-.58,1.16-.87,2.41-.87.19,0,.38,0,.59,0a8.12,8.12,0,0,1,4.33,1.77A6.92,6.92,0,0,1,1575,1226.23Zm0,7.66a3,3,0,0,1-2.45-1,2,2,0,0,1-.11-2c.35-.58,1.16-.88,2.41-.88l.59,0a8.14,8.14,0,0,1,4.33,1.78A7,7,0,0,1,1575,1233.89Zm0,7.66a2.88,2.88,0,0,1-2.45-1,2,2,0,0,1-.11-2c.35-.58,1.16-.87,2.41-.87l.59,0a8.2,8.2,0,0,1,4.33,1.77A6.93,6.93,0,0,1,1575,1241.55Zm0,7.66a2.88,2.88,0,0,1-2.45-1,2,2,0,0,1-.11-2c.35-.58,1.16-.87,2.41-.87.19,0,.38,0,.59,0a8.12,8.12,0,0,1,4.33,1.77A6.93,6.93,0,0,1,1575,1249.21Zm0,7.65a3,3,0,0,1-2.45-1,2,2,0,0,1-.11-2c.35-.58,1.16-.88,2.41-.88l.59,0a8.22,8.22,0,0,1,4.33,1.78A6.92,6.92,0,0,1,1575,1256.86Zm0,7.66a2.88,2.88,0,0,1-2.45-1,2,2,0,0,1-.11-2c.35-.58,1.16-.87,2.41-.87l.59,0a8.14,8.14,0,0,1,4.33,1.78A7,7,0,0,1,1575,1264.52Zm0,7.66a3,3,0,0,1-2.45-1,2,2,0,0,1-.11-2c.35-.58,1.16-.87,2.41-.87.19,0,.38,0,.59,0a8.12,8.12,0,0,1,4.33,1.77A7,7,0,0,1,1575,1272.18Zm0,7.65a3,3,0,0,1-2.45-1,2,2,0,0,1-.11-2c.35-.58,1.16-.87,2.41-.87h.59a8.22,8.22,0,0,1,4.33,1.78A6.92,6.92,0,0,1,1575,1279.83Zm0,7.66a2.88,2.88,0,0,1-2.45-1,2,2,0,0,1-.11-2c.35-.58,1.16-.87,2.41-.87l.59,0a8.14,8.14,0,0,1,4.33,1.78A7,7,0,0,1,1575,1287.49Zm0,7.66a2.9,2.9,0,0,1-2.45-1,2,2,0,0,1-.11-2c.35-.58,1.16-.87,2.41-.87l.59,0a8.12,8.12,0,0,1,4.33,1.77A7,7,0,0,1,1575,1295.15Zm0,7.64a3.06,3.06,0,0,1-2.45-1,2,2,0,0,1-.11-2c.35-.58,1.16-.87,2.41-.87l.59,0a8.2,8.2,0,0,1,4.33,1.77A7,7,0,0,1,1575,1302.79Zm0,7.64a2.88,2.88,0,0,1-2.45-1,2,2,0,0,1-.11-2c.35-.58,1.16-.87,2.41-.87l.59,0a8.2,8.2,0,0,1,4.33,1.77A7,7,0,0,1,1575,1310.43Zm0,7.64a3,3,0,0,1-2.45-1,2,2,0,0,1-.11-2c.35-.58,1.16-.88,2.41-.88l.59,0a8.14,8.14,0,0,1,4.33,1.78A6.92,6.92,0,0,1,1575,1318.07Zm4.35,9c-1.1,2.62-2.46,3.4-3.41,3.6a2,2,0,0,1-1.85-.28,2.33,2.33,0,0,1-.43-2c.37-2.37,3.56-3.57,3.93-3.69a7.25,7.25,0,0,1,2.37-.42A7.93,7.93,0,0,1,1579.39,1327.1Zm81-2.34c.36.13,3.55,1.33,3.93,3.7a2.31,2.31,0,0,1-.44,2,2,2,0,0,1-1.85.27c-.94-.19-2.3-1-3.41-3.59a8,8,0,0,1-.6-2.75A7.29,7.29,0,0,1,1660.4,1324.76Zm2.58-10.85a2.89,2.89,0,0,1,2.46,1,2,2,0,0,1,.11,2c-.41.67-1.42,1-3,.85a8.12,8.12,0,0,1-4.33-1.77A7,7,0,0,1,1663,1313.91Zm0-7.65a3,3,0,0,1,2.45,1,2,2,0,0,1,.11,2c-.41.67-1.42,1-3,.86a8.22,8.22,0,0,1-4.33-1.78A7.09,7.09,0,0,1,1663,1306.26Zm0-7.66a3,3,0,0,1,2.46,1,2,2,0,0,1,.11,2c-.41.66-1.42.95-3,.85a8.14,8.14,0,0,1-4.33-1.78A7,7,0,0,1,1663,1298.6Zm0-7.66a2.91,2.91,0,0,1,2.46,1,2,2,0,0,1,.11,2c-.41.67-1.42,1-3,.85a8.12,8.12,0,0,1-4.33-1.77A7,7,0,0,1,1663,1290.94Zm0-7.65a2.86,2.86,0,0,1,2.46,1,2,2,0,0,1,.11,2c-.41.67-1.41,1-3,.86a8.22,8.22,0,0,1-4.33-1.78A6.9,6.9,0,0,1,1663,1283.29Zm0-7.66a3.06,3.06,0,0,1,2.45,1,2,2,0,0,1,.11,2c-.41.67-1.42,1-3,.86a8.14,8.14,0,0,1-4.33-1.78A7,7,0,0,1,1663,1275.63Zm0-7.66a2.88,2.88,0,0,1,2.46,1,2,2,0,0,1,.11,2c-.41.66-1.42,1-3,.85a8.2,8.2,0,0,1-4.33-1.77A7,7,0,0,1,1663,1268Zm0-7.66a3,3,0,0,1,2.45,1,2,2,0,0,1,.11,2c-.41.67-1.42,1-3,.85a8.12,8.12,0,0,1-4.33-1.77A7,7,0,0,1,1663,1260.31Zm0-7.65a3,3,0,0,1,2.45,1,2,2,0,0,1,.11,2c-.41.67-1.42,1-3,.86a8.22,8.22,0,0,1-4.33-1.78A7,7,0,0,1,1663,1252.66Zm0-7.66a2.88,2.88,0,0,1,2.46,1,2,2,0,0,1,.11,2c-.41.66-1.42,1-3,.85a8.14,8.14,0,0,1-4.33-1.78A7,7,0,0,1,1663,1245Zm0-7.66a2.89,2.89,0,0,1,2.46,1,2,2,0,0,1,.11,2c-.41.67-1.42,1-3,.85a8.19,8.19,0,0,1-4.34-1.77A7,7,0,0,1,1663,1237.34Zm0-7.64a3.06,3.06,0,0,1,2.45,1,2,2,0,0,1,.11,2c-.41.66-1.42,1-3,.85a8.12,8.12,0,0,1-4.33-1.77A7,7,0,0,1,1663,1229.7Zm-15.43-26.55a3,3,0,0,1,1-2.45,2.07,2.07,0,0,1,1.13-.33,1.69,1.69,0,0,1,.87.23c.67.4,1,1.41.85,3a8.12,8.12,0,0,1-1.77,4.33A7,7,0,0,1,1647.56,1203.15Zm-7.65,0a3,3,0,0,1,1-2.46,2.09,2.09,0,0,1,1.13-.33,1.66,1.66,0,0,1,.87.23c.67.4,1,1.41.86,3a8.22,8.22,0,0,1-1.78,4.33A7,7,0,0,1,1639.91,1203.16Zm-7.66,0a2.88,2.88,0,0,1,1-2.46,2.13,2.13,0,0,1,1.14-.33,1.65,1.65,0,0,1,.86.23c.67.4,1,1.41.86,3a8.14,8.14,0,0,1-1.78,4.33A7,7,0,0,1,1632.25,1203.16Zm-7.66,0a3.06,3.06,0,0,1,1-2.45,2.13,2.13,0,0,1,1.14-.33,1.69,1.69,0,0,1,.87.23c.66.4,1,1.41.85,3a8.2,8.2,0,0,1-1.77,4.33A7,7,0,0,1,1624.59,1203.15Zm-7.65,0a2.86,2.86,0,0,1,1-2.46,2.07,2.07,0,0,1,1.13-.33,1.69,1.69,0,0,1,.87.23c.67.4,1,1.41.85,3a8.12,8.12,0,0,1-1.77,4.33A7,7,0,0,1,1616.94,1203.16Zm-7.66,0a2.88,2.88,0,0,1,1-2.46,2.1,2.1,0,0,1,1.14-.33,1.65,1.65,0,0,1,.86.23c.67.4,1,1.41.86,3a8.14,8.14,0,0,1-1.78,4.33A7,7,0,0,1,1609.28,1203.16Zm-7.66,0a3.07,3.07,0,0,1,1-2.46,2.13,2.13,0,0,1,1.14-.33,1.69,1.69,0,0,1,.87.23c.66.4.95,1.41.85,3a8.14,8.14,0,0,1-1.78,4.33A7,7,0,0,1,1601.62,1203.16Zm-7.66,0a2.89,2.89,0,0,1,1-2.46,2.07,2.07,0,0,1,1.13-.33,1.69,1.69,0,0,1,.87.23c.67.4,1,1.41.85,3a8.12,8.12,0,0,1-1.77,4.33A7,7,0,0,1,1594,1203.16Zm-7.65,0a2.86,2.86,0,0,1,1-2.46,2.09,2.09,0,0,1,1.13-.33,1.66,1.66,0,0,1,.87.23c.67.4,1,1.41.86,3a8.22,8.22,0,0,1-1.78,4.33A7,7,0,0,1,1586.31,1203.16Zm4.15,126.17a2.86,2.86,0,0,1-1,2.46,2,2,0,0,1-2,.11c-.67-.41-1-1.42-.86-3a8.22,8.22,0,0,1,1.78-4.33A7,7,0,0,1,1590.46,1329.33Zm7.66,0a3.06,3.06,0,0,1-1,2.45,2,2,0,0,1-2,.11c-.67-.41-1-1.42-.86-3a8.14,8.14,0,0,1,1.78-4.33A7,7,0,0,1,1598.12,1329.34Zm7.66,0a2.91,2.91,0,0,1-1,2.46,2,2,0,0,1-2,.11c-.66-.41-1-1.42-.85-3a8.12,8.12,0,0,1,1.77-4.33A7,7,0,0,1,1605.78,1329.33Zm7.65,0a3,3,0,0,1-1,2.45,2,2,0,0,1-2,.11c-.67-.41-1-1.42-.85-3a8.12,8.12,0,0,1,1.77-4.33A7,7,0,0,1,1613.43,1329.34Zm7.66,0a3,3,0,0,1-1,2.45,2,2,0,0,1-2,.11c-.67-.41-1-1.42-.86-3a8.14,8.14,0,0,1,1.78-4.33A7,7,0,0,1,1621.09,1329.34Zm7.66,0a2.88,2.88,0,0,1-1,2.45,2,2,0,0,1-2,.11c-.66-.41-1-1.42-.85-3a8.14,8.14,0,0,1,1.78-4.33A7,7,0,0,1,1628.75,1329.34Zm7.66,0a3,3,0,0,1-1,2.45,2,2,0,0,1-2,.11c-.67-.41-1-1.42-.85-3a8.12,8.12,0,0,1,1.77-4.33A7,7,0,0,1,1636.41,1329.34Zm7.65,0a2.85,2.85,0,0,1-1,2.45,2,2,0,0,1-2,.11c-.67-.41-1-1.42-.86-3a8.22,8.22,0,0,1,1.78-4.33A7,7,0,0,1,1644.06,1329.34Zm7.66,0a2.88,2.88,0,0,1-1,2.45,2,2,0,0,1-2,.11c-.66-.41-1-1.42-.85-3a8.14,8.14,0,0,1,1.78-4.33A7,7,0,0,1,1651.72,1329.34Zm3.09-101.35a5.68,5.68,0,0,0,1.52,3.88,6.88,6.88,0,0,0-1.52,3.76,5.68,5.68,0,0,0,1.52,3.88,6.94,6.94,0,0,0-1.52,3.78,5.68,5.68,0,0,0,1.52,3.88,6.94,6.94,0,0,0-1.52,3.78,5.7,5.7,0,0,0,1.52,3.88,6.91,6.91,0,0,0-1.52,3.77,5.72,5.72,0,0,0,1.52,3.89,6.88,6.88,0,0,0-1.52,3.77,5.68,5.68,0,0,0,1.52,3.88,6.94,6.94,0,0,0-1.52,3.78,5.68,5.68,0,0,0,1.52,3.88,6.91,6.91,0,0,0-1.52,3.78,5.7,5.7,0,0,0,1.52,3.88,6.91,6.91,0,0,0-1.52,3.77,5.68,5.68,0,0,0,1.52,3.88,6.94,6.94,0,0,0-1.52,3.78,5.68,5.68,0,0,0,1.52,3.88,6.91,6.91,0,0,0-1.52,3.78,5.7,5.7,0,0,0,1.52,3.88,6.91,6.91,0,0,0-1.52,3.77,5.71,5.71,0,0,0,1.51,3.88,6.94,6.94,0,0,0-1.51,3.75,5.36,5.36,0,0,0,.29,1.63,5.27,5.27,0,0,0-1.67-.3,5.82,5.82,0,0,0-3.88,1.52,6.94,6.94,0,0,0-3.78-1.52,5.86,5.86,0,0,0-3.88,1.52,6.91,6.91,0,0,0-3.77-1.52,5.89,5.89,0,0,0-3.89,1.52,6.88,6.88,0,0,0-3.77-1.52,5.86,5.86,0,0,0-3.88,1.52,6.94,6.94,0,0,0-3.78-1.52,6,6,0,0,0-3.88,1.52,6.91,6.91,0,0,0-3.77-1.52h-.09a5.76,5.76,0,0,0-3.8,1.52,7,7,0,0,0-3.77-1.53,5.79,5.79,0,0,0-3.88,1.53,6.94,6.94,0,0,0-3.78-1.52,5.82,5.82,0,0,0-3.88,1.52,7,7,0,0,0-3.78-1.53,5.77,5.77,0,0,0-3.87,1.53,6.88,6.88,0,0,0-3.75-1.52,5.3,5.3,0,0,0-1.63.29,5.56,5.56,0,0,0,.3-1.67,5.7,5.7,0,0,0-1.52-3.88,6.88,6.88,0,0,0,1.52-3.76,5.7,5.7,0,0,0-1.52-3.88,6.88,6.88,0,0,0,1.52-3.76,5.68,5.68,0,0,0-1.52-3.88,6.88,6.88,0,0,0,1.52-3.76,5.68,5.68,0,0,0-1.52-3.88,6.94,6.94,0,0,0,1.52-3.78,5.68,5.68,0,0,0-1.52-3.88,6.91,6.91,0,0,0,1.52-3.78,5.7,5.7,0,0,0-1.52-3.88,6.91,6.91,0,0,0,1.52-3.77,5.68,5.68,0,0,0-1.52-3.88,6.94,6.94,0,0,0,1.52-3.78,5.68,5.68,0,0,0-1.52-3.88,6.94,6.94,0,0,0,1.52-3.78,5.7,5.7,0,0,0-1.52-3.88,6.91,6.91,0,0,0,1.52-3.77,5.7,5.7,0,0,0-1.52-3.89,6.88,6.88,0,0,0,1.52-3.77,5.68,5.68,0,0,0-1.52-3.88,6.94,6.94,0,0,0,1.52-3.78,5.68,5.68,0,0,0-1.52-3.88,6.91,6.91,0,0,0,1.52-3.78,5.7,5.7,0,0,0-1.52-3.88,6.91,6.91,0,0,0,1.52-3.77,5.68,5.68,0,0,0-1.52-3.88,6.85,6.85,0,0,0,1.52-3.75,5.07,5.07,0,0,0-.3-1.63,5.37,5.37,0,0,0,5.56-1.22,7,7,0,0,0,3.77,1.53,5.69,5.69,0,0,0,3.89-1.53,7,7,0,0,0,3.77,1.53,5.65,5.65,0,0,0,3.88-1.53,7,7,0,0,0,3.78,1.53,5.86,5.86,0,0,0,3.88-1.53,7,7,0,0,0,3.77,1.53,5.66,5.66,0,0,0,3.89-1.53,7,7,0,0,0,3.77,1.53,5.63,5.63,0,0,0,3.88-1.53,7,7,0,0,0,3.78,1.53,5.65,5.65,0,0,0,3.88-1.53,7,7,0,0,0,3.78,1.53,5.69,5.69,0,0,0,3.88-1.53,7,7,0,0,0,3.77,1.53,5.78,5.78,0,0,0,3.88-1.52,6.91,6.91,0,0,0,3.75,1.51,5.36,5.36,0,0,0,1.63-.29,5.27,5.27,0,0,0-.3,1.67,5.7,5.7,0,0,0,1.52,3.88,6.88,6.88,0,0,0-1.52,3.76,5.68,5.68,0,0,0,1.52,3.88A6.88,6.88,0,0,0,1654.81,1228Z" transform="translate(-242 -85.79)"/></g><g id="_09" data-name="09"><polygon class="cls-13" points="1460.16 1478.78 1460.16 1360.59 1233.08 1299.75 1203.54 1410.01 1460.16 1478.78"/><polygon class="cls-12" points="1203.54 1410.01 1203.54 1468.85 1460.16 1537.61 1460.16 1478.78 1203.54 1410.01"/><line class="cls-14" x1="1203.54" y1="1410.01" x2="1460.16" y2="1478.78"/><polygon class="cls-15" points="1460.16 1360.59 1233.08 1299.75 1203.54 1410.01 1203.54 1468.85 1460.16 1537.61 1460.16 1360.59"/><g class="cls-16"><rect x="1290.63" y="1263.28" width="101.4" height="140"/><rect class="cls-17" x="1290.63" y="1263.28" width="101.4" height="140"/></g><rect class="cls-11" x="1286.63" y="1258.28" width="101.4" height="140"/><rect class="cls-18" x="1286.63" y="1258.28" width="101.4" height="140"/><rect class="cls-19" x="1286.63" y="1258.28" width="101.4" height="140"/><polygon class="cls-11" points="1286.63 1258.29 1303.85 1278.21 1370.81 1278.21 1388.04 1258.29 1370.81 1274.96 1303.85 1274.96 1286.63 1258.29"/><path class="cls-11" d="M1554.33,1406.91a1.08,1.08,0,0,1-1.08-1.08v-9.48a.53.53,0,0,0-.53-.53h-4.08a.53.53,0,0,0-.53.53v9.48a1.08,1.08,0,0,1-2.16,0v-9.48a2.7,2.7,0,0,1,2.69-2.69h4.08a2.69,2.69,0,0,1,2.68,2.69v9.48A1.08,1.08,0,0,1,1554.33,1406.91Z" transform="translate(-242 -85.79)"/><path class="cls-11" d="M1567.25,1406.91h-4.08a2.69,2.69,0,0,1-2.68-2.69v-7.87a2.69,2.69,0,0,1,2.68-2.69h4.08a2.7,2.7,0,0,1,2.69,2.69v7.87A2.7,2.7,0,0,1,1567.25,1406.91Zm-4.08-11.09a.53.53,0,0,0-.53.53v7.87a.53.53,0,0,0,.53.53h4.08a.53.53,0,0,0,.53-.53v-7.87a.53.53,0,0,0-.53-.53Z" transform="translate(-242 -85.79)"/><path class="cls-11" d="M1583,1393.66a1.08,1.08,0,0,0-1.08,1.08v7.14h-4.61a.54.54,0,0,1-.53-.54v-6.6a1.08,1.08,0,0,0-2.16,0v6.6a2.69,2.69,0,0,0,2.69,2.69H1582v1.8a1.08,1.08,0,1,0,2.15,0v-11.09A1.07,1.07,0,0,0,1583,1393.66Z" transform="translate(-242 -85.79)"/><path class="cls-11" d="M1597.67,1393.66h-7.3a1.08,1.08,0,0,0,0,2.16h2.57v10a1.08,1.08,0,0,0,2.16,0v-10h2.57a1.08,1.08,0,0,0,0-2.16Z" transform="translate(-242 -85.79)"/><path class="cls-11" d="M1610.73,1395.94a2.7,2.7,0,0,0-2.64-2.16h-.16a2.7,2.7,0,0,0-2.63,2.16l-2,9.92a1.08,1.08,0,0,0,.85,1.26,1.06,1.06,0,0,0,1.26-.84l.46-2.28h4.23l.45,2.28a1.07,1.07,0,0,0,1.06.86.78.78,0,0,0,.21,0,1.06,1.06,0,0,0,.84-1.26Zm-4.41,5.91,1.09-5.49a.53.53,0,0,1,.52-.43h.16a.53.53,0,0,1,.52.43l1.09,5.49Z" transform="translate(-242 -85.79)"/><circle class="cls-11" cx="1317.95" cy="1382.29" r="3.74"/><circle class="cls-11" cx="1337.33" cy="1382.29" r="3.74"/><circle class="cls-11" cx="1356.71" cy="1382.29" r="3.74"/></g><g id="_10" data-name="10"><polygon class="cls-13" points="1244.22 1193.44 698.11 1047.11 698.11 1274.55 1187.35 1405.68 1244.22 1193.44"/><polygon class="cls-12" points="1187.35 1405.68 1244.22 1193.44 1244.22 1252.28 1187.35 1464.52 698.11 1333.39 698.11 1274.55 1187.35 1405.68"/><polyline class="cls-14" points="698.11 1274.55 1187.35 1405.68 1244.22 1193.44"/><line class="cls-14" x1="1187.35" y1="1464.52" x2="1187.35" y2="1405.68"/><polygon class="cls-15" points="1244.22 1193.44 698.11 1047.11 698.11 1274.55 698.11 1333.39 1187.35 1464.52 1244.22 1252.28 1244.22 1193.44"/><g class="cls-16"><path d="M1203.49,1245.29l11.68-3.17,2.19,6.88,25.85,9.44s10.43,27.67,14.81,70.9l-2.87,12,.45,19.23s-2.32,2.93-16.93,1.92v9.65H1168.3v-9.65c-14.61,1-16.93-1.92-16.93-1.92l.45-19.23-2.87-12c4.39-43.23,14.82-70.9,14.82-70.9l25.84-9.44,2.2-6.88Z" transform="translate(-242 -85.79)"/><path class="cls-17" d="M1203.49,1245.29l11.68-3.17,2.19,6.88,25.85,9.44s10.43,27.67,14.81,70.9l-2.87,12,.45,19.23s-2.32,2.93-16.93,1.92v9.65H1168.3v-9.65c-14.61,1-16.93-1.92-16.93-1.92l.45-19.23-2.87-12c4.39-43.23,14.82-70.9,14.82-70.9l25.84-9.44,2.2-6.88Z" transform="translate(-242 -85.79)"/></g><path class="cls-11" d="M1199.49,1240.29l11.68-3.17,2.19,6.88,25.85,9.44s10.43,27.67,14.81,70.9l-2.87,12,.45,19.23s-2.32,2.93-16.93,1.92v9.65H1164.3v-9.65c-14.61,1-16.93-1.92-16.93-1.92l.45-19.23-2.87-12c4.39-43.23,14.82-70.9,14.82-70.9l25.84-9.44,2.2-6.88Z" transform="translate(-242 -85.79)"/><path class="cls-18" d="M1199.49,1240.29l11.68-3.17,2.19,6.88,25.85,9.44s10.43,27.67,14.81,70.9l-2.87,12,.45,19.23s-2.32,2.93-16.93,1.92v9.65H1164.3v-9.65c-14.61,1-16.93-1.92-16.93-1.92l.45-19.23-2.87-12c4.39-43.23,14.82-70.9,14.82-70.9l25.84-9.44,2.2-6.88Z" transform="translate(-242 -85.79)"/><path class="cls-19" d="M1199.49,1240.29l11.68-3.17,2.19,6.88,25.85,9.44s10.43,27.67,14.81,70.9l-2.87,12,.45,19.23s-2.32,2.93-16.93,1.92v9.65H1164.3v-9.65c-14.61,1-16.93-1.92-16.93-1.92l.45-19.23-2.87-12c4.39-43.23,14.82-70.9,14.82-70.9l25.84-9.44,2.2-6.88Z" transform="translate(-242 -85.79)"/><polygon class="cls-11" points="925.38 1186.37 925.38 1193.37 936.77 1196.14 947.96 1193.37 947.96 1186.37 925.38 1186.37"/><polygon class="cls-11" points="967.22 1186.37 967.22 1193.37 978.61 1196.14 989.79 1193.37 989.79 1186.37 967.22 1186.37"/><circle class="cls-11" cx="957.49" cy="1157.33" r="1.37"/><circle class="cls-11" cx="957.49" cy="1161.19" r="1.37"/><circle class="cls-11" cx="957.49" cy="1171.22" r="1.37"/><circle class="cls-11" cx="957.49" cy="1187.14" r="1.37"/><circle class="cls-11" cx="957.49" cy="1205.8" r="1.37"/></g></svg>