<svg id="Plan-01" xmlns="http://www.w3.org/2000/svg" viewBox="0 0 2816 1800"><defs><style>.cls-1{fill:#7588dc;opacity:0.3;}.cls-2,.cls-3,.cls-4,.cls-5{fill:none;stroke-miterlimit:10;}.cls-2{stroke:#e20613;stroke-width:5px;}.cls-3,.cls-4,.cls-5{stroke:#006;}.cls-3{stroke-width:9px;}.cls-5{stroke-width:2px;}.cls-6{fill:#006;}.cls-7{fill:#636cc7;}.cls-8{fill:#fff;}</style></defs><rect class="cls-1" x="1976.01" y="1044.49" width="578.31" height="490.2"/><polygon class="cls-1" points="1908.41 1044.49 1908.41 1203.85 1608.39 1203.85 1406.63 1149.77 1452.57 978.53 1698.71 1044.49 1908.41 1044.49"/><polygon class="cls-1" points="1699.03 1602.29 1699.07 1752.87 47.13 1752.87 47.13 1511.41 698.13 1511.41 698.13 1384.56 853.58 1426.21 828.2 1520.79 1509.8 1703.45 1536.94 1602.29 1699.03 1602.29"/><polyline class="cls-2" points="685.26 1145.94 664.31 1166.88 685.26 1187.83"/><polyline class="cls-2" points="2139.3 1670.94 2160.24 1650 2139.3 1629.06"/><polyline class="cls-2" points="1444.71 1527.94 1459.51 1553.59 1485.16 1538.78"/><line class="cls-3" x1="2044.29" y1="1568.47" x2="2592.27" y2="1568.47"/><line class="cls-3" x1="1826.1" y1="1568.47" x2="1961.18" y2="1568.47"/><line class="cls-3" x1="1632.95" y1="1568.47" x2="1742.99" y2="1568.47"/><line class="cls-3" x1="867.06" y1="1394.82" x2="1412.09" y2="1540.88"/><line class="cls-3" x1="664.31" y1="1340.48" x2="786.78" y2="1373.3"/><line class="cls-3" x1="516.49" y1="1134.2" x2="516.49" y2="1105.41"/><line class="cls-3" x1="516.49" y1="1224.14" x2="516.49" y2="1195.35"/><line class="cls-3" x1="569.33" y1="1105.41" x2="333.64" y2="1105.41"/><polyline class="cls-3" points="8.01 1477.64 664.31 1477.64 664.31 1224.14 333.64 1224.14 333.64 1195.35 333.64 1134.2 333.64 915.43 664.31 915.43 664.31 1109.63"/><line class="cls-3" x1="1942.24" y1="1006.27" x2="1942.24" y2="1568.47"/><line class="cls-4" x1="2340.92" y1="1568.47" x2="2340.92" y2="1677.58"/><line class="cls-4" x1="2362.23" y1="1568.47" x2="2362.23" y2="1677.58"/><line class="cls-4" x1="2383.54" y1="1568.47" x2="2383.54" y2="1677.58"/><line class="cls-4" x1="2404.86" y1="1568.47" x2="2404.86" y2="1677.58"/><line class="cls-4" x1="2426.17" y1="1568.47" x2="2426.17" y2="1677.58"/><line class="cls-4" x1="2447.48" y1="1568.47" x2="2447.48" y2="1677.58"/><line class="cls-4" x1="2468.8" y1="1568.47" x2="2468.8" y2="1677.58"/><line class="cls-4" x1="2490.11" y1="1568.47" x2="2490.11" y2="1677.58"/><line class="cls-4" x1="2511.42" y1="1568.47" x2="2511.42" y2="1677.58"/><line class="cls-4" x1="2532.73" y1="1568.47" x2="2532.73" y2="1677.58"/><line class="cls-4" x1="2554.05" y1="1568.47" x2="2554.05" y2="1677.58"/><line class="cls-4" x1="2575.36" y1="1568.47" x2="2575.36" y2="1677.58"/><line class="cls-4" x1="1263.22" y1="1602.36" x2="1288.57" y2="1507.78"/><line class="cls-4" x1="1283.8" y1="1607.88" x2="1309.15" y2="1513.29"/><line class="cls-4" x1="1304.39" y1="1613.39" x2="1329.74" y2="1518.81"/><line class="cls-4" x1="1324.98" y1="1618.91" x2="1350.33" y2="1524.33"/><line class="cls-4" x1="1345.56" y1="1624.43" x2="1370.91" y2="1529.84"/><line class="cls-4" x1="1366.15" y1="1629.94" x2="1391.5" y2="1535.36"/><line class="cls-4" x1="1016.18" y1="1536.15" x2="1041.53" y2="1441.57"/><line class="cls-4" x1="1036.76" y1="1541.67" x2="1062.11" y2="1447.09"/><line class="cls-4" x1="1057.35" y1="1547.19" x2="1082.7" y2="1452.61"/><line class="cls-4" x1="1077.94" y1="1552.71" x2="1103.29" y2="1458.12"/><line class="cls-4" x1="1098.52" y1="1558.22" x2="1123.87" y2="1463.64"/><line class="cls-4" x1="1119.11" y1="1563.74" x2="1144.46" y2="1469.16"/><line class="cls-4" x1="1139.7" y1="1569.26" x2="1165.05" y2="1474.67"/><line class="cls-4" x1="1160.28" y1="1574.77" x2="1185.63" y2="1480.19"/><line class="cls-4" x1="1180.87" y1="1580.29" x2="1206.22" y2="1485.71"/><line class="cls-4" x1="1201.46" y1="1585.81" x2="1226.81" y2="1491.22"/><line class="cls-4" x1="1222.04" y1="1591.33" x2="1247.39" y2="1496.74"/><line class="cls-4" x1="1242.63" y1="1596.84" x2="1267.98" y2="1502.26"/><line class="cls-4" x1="446.71" y1="1010.42" x2="446.71" y2="1105.41"/><line class="cls-4" x1="468.02" y1="1010.42" x2="468.02" y2="1105.41"/><line class="cls-4" x1="489.33" y1="1010.42" x2="489.33" y2="1105.41"/><line class="cls-4" x1="510.65" y1="1010.42" x2="510.65" y2="1105.41"/><line class="cls-4" x1="531.96" y1="1010.42" x2="531.96" y2="1105.41"/><line class="cls-4" x1="553.27" y1="1010.42" x2="553.27" y2="1105.41"/><line class="cls-3" x1="569.33" y1="1010.42" x2="427.96" y2="1010.42"/><line class="cls-3" x1="2596.27" y1="1677.58" x2="2340.29" y2="1677.58"/><path class="cls-3" d="M1173.53,1365.92c44.22-165,100.93-376.67,116.73-435.62" transform="translate(-242 -100)"/><path class="cls-3" d="M1150.86,1450.52c-20.53,76.6-37.1,138.43-39.23,146.36L1727.93,1762l25.35-94.58,3.76,1h34.8" transform="translate(-242 -100)"/><path class="cls-3" d="M1555.15,1468.19c37.73-140.79,89.44-333.79,116.73-435.63" transform="translate(-242 -100)"/><path class="cls-3" d="M1422,1224.06c24.27-90.58,50-186.75,64.62-241.14" transform="translate(-242 -100)"/><path class="cls-3" d="M1444.45,1438.52c19.78-73.82,38.93-145.26,52.12-194.48L1348,1204.23h0l-52.11,194.48" transform="translate(-242 -100)"/><path class="cls-3" d="M1670,1499l18.26,4.89h0l52.12-194.48" transform="translate(-242 -100)"/><line class="cls-3" x1="1295.29" y1="1363.41" x2="1371.09" y2="1383.72"/><line class="cls-3" x1="1130.11" y1="1319.14" x2="1249.89" y2="1351.24"/><line class="cls-3" x1="1006.27" y1="1285.95" x2="1073.16" y2="1303.87"/><polyline class="cls-3" points="784.14 759.53 784.14 1226.42 960.88 1273.78"/><line class="cls-3" x1="2160.24" y1="1691.55" x2="2160.24" y2="1791.21"/><line class="cls-3" x1="2160.24" y1="1568.47" x2="2160.24" y2="1608.44"/><line class="cls-3" x1="1732.85" y1="1659.11" x2="1732.85" y2="1568.47"/><line class="cls-3" x1="1732.85" y1="1791.21" x2="1732.85" y2="1742.22"/><line class="cls-5" x1="1592.82" y1="1234.69" x2="1942.12" y2="1234.69"/><polyline class="cls-3" points="581.17 704.89 236.24 612.46 236.24 962.35 333.64 962.35"/><line class="cls-4" x1="2046.56" y1="893.26" x2="2046.56" y2="997.36"/><line class="cls-4" x1="2067.88" y1="893.26" x2="2067.88" y2="997.36"/><line class="cls-4" x1="2089.19" y1="893.26" x2="2089.19" y2="997.36"/><line class="cls-4" x1="2110.5" y1="893.26" x2="2110.5" y2="997.36"/><line class="cls-4" x1="2131.82" y1="893.26" x2="2131.82" y2="997.36"/><line class="cls-4" x1="2153.13" y1="893.26" x2="2153.13" y2="997.36"/><line class="cls-4" x1="2174.44" y1="893.26" x2="2174.44" y2="997.36"/><line class="cls-4" x1="2195.76" y1="893.26" x2="2195.76" y2="997.36"/><line class="cls-4" x1="2217.07" y1="893.26" x2="2217.07" y2="997.36"/><line class="cls-4" x1="2238.38" y1="893.26" x2="2238.38" y2="997.36"/><line class="cls-4" x1="2259.69" y1="893.26" x2="2259.69" y2="997.36"/><line class="cls-4" x1="2358.28" y1="893.26" x2="2358.28" y2="997.36"/><line class="cls-4" x1="2379.59" y1="893.26" x2="2379.59" y2="997.36"/><line class="cls-4" x1="2400.91" y1="893.26" x2="2400.91" y2="997.36"/><line class="cls-4" x1="2422.22" y1="893.26" x2="2422.22" y2="997.36"/><line class="cls-4" x1="2443.53" y1="893.26" x2="2443.53" y2="997.36"/><line class="cls-4" x1="2464.85" y1="893.26" x2="2464.85" y2="997.36"/><line class="cls-4" x1="2486.16" y1="893.26" x2="2486.16" y2="997.36"/><line class="cls-4" x1="2507.47" y1="893.26" x2="2507.47" y2="997.36"/><line class="cls-4" x1="2528.78" y1="893.26" x2="2528.78" y2="997.36"/><line class="cls-4" x1="2550.1" y1="893.26" x2="2550.1" y2="997.36"/><line class="cls-4" x1="2571.41" y1="893.26" x2="2571.41" y2="997.36"/><path class="cls-6" d="M847.52,804.85l76.42,20.47-3.58,13.34-76.42-20.47,3.58-13.34m-1.42-2.45-4.61,17.2,80.29,21.51,4.61-17.2L846.1,802.4Z" transform="translate(-242 -100)"/><polyline class="cls-5" points="2599.85 893.26 1934.67 893.26 1934.67 997.36"/><polyline class="cls-5" points="1074.64 828.48 1126.75 634 645.73 505.11"/><line class="cls-4" x1="810.98" y1="549.39" x2="758.87" y2="743.87"/><line class="cls-4" x1="831.57" y1="554.91" x2="779.46" y2="749.39"/><line class="cls-4" x1="852.16" y1="560.42" x2="800.05" y2="754.9"/><line class="cls-4" x1="872.75" y1="565.94" x2="820.63" y2="760.42"/><line class="cls-4" x1="893.33" y1="571.46" x2="841.22" y2="765.93"/><line class="cls-4" x1="913.92" y1="576.97" x2="861.81" y2="771.45"/><line class="cls-4" x1="934.51" y1="582.49" x2="882.4" y2="776.97"/><line class="cls-4" x1="955.09" y1="588" x2="902.98" y2="782.48"/><line class="cls-4" x1="975.68" y1="593.52" x2="923.57" y2="788"/><line class="cls-4" x1="996.27" y1="599.04" x2="944.16" y2="793.52"/><line class="cls-4" x1="1016.85" y1="604.55" x2="964.74" y2="799.03"/><line class="cls-4" x1="1037.44" y1="610.07" x2="985.33" y2="804.55"/><line class="cls-5" x1="1011.39" y1="707.31" x2="784.93" y2="646.63"/><polyline class="cls-3" points="1589.78 1270.83 1599.02 1236.35 1365.26 1173.71"/><path class="cls-6" d="M2282.15,1099.36v13.81H2203.8v-13.81h78.35m2-2H2201.8v17.81h82.35v-17.81Z" transform="translate(-242 -100)"/><path class="cls-6" d="M921.78,841.11l1020.53,273.45,2.26.61H2201.8v-17.81H1946.92L926.39,823.91ZM688.43,117.81V411.05l13.21,3.54,204.05,54.66L818.41,795l-4.61,17.2L831,816.79l10.48,2.81,4.61-17.2-10.48-2.81L927.5,456.66,706.25,397.39V100H242V1900H3058V1655.1H2843.45V1097.36h-559.3v17.81h541.49v557.75h214.55v209.28H259.81V117.81H688.43" transform="translate(-242 -100)"/><rect class="cls-4" x="362.84" y="1124.77" width="124.44" height="80"/><line class="cls-4" x1="362.84" y1="1124.77" x2="487.29" y2="1204.77"/><line class="cls-4" x1="362.84" y1="1204.77" x2="487.29" y2="1124.77"/><rect class="cls-7" x="1114.23" y="1181.38" width="80" height="80"/><path class="cls-8" d="M1396,1307.09l1.6-5.85-1.57-2.72h-4.8v4.29l1.18,4.28Zm16,20H1399.8v-12.86l-4.28-4.28H1388l-5.33,11.43v5a12.86,12.86,0,1,0,20,10.69,13.55,13.55,0,0,0-.08-1.43h2.94v8.57h3.78l.5,2.86h5.72Zm-22.22,18.57a8.57,8.57,0,1,1,8.58-8.57A8.58,8.58,0,0,1,1389.8,1345.66Z" transform="translate(-242 -100)"/><rect class="cls-7" x="1718.4" y="1084.17" width="80" height="80"/><path class="cls-8" d="M2003.46,1222.74l-.17,0V1218a8.57,8.57,0,1,0-11.45-8.07h4.29a4.29,4.29,0,1,1,4.29,4.29h-2.88v7.14l-21.32,12.31-1.53,5.73v4.82h25.71v-4.29h-20V1237h40v7.14h-20V1247H2019l7.15-3.34v-15Z" transform="translate(-242 -100)"/><rect class="cls-7" x="1263.75" y="992.77" width="80" height="80"/><path class="cls-8" d="M1547.67,1112.76l1.59-5.85-1.56-2.72h-4.8v4.29l1.17,4.28Zm2.51,2.86h-5.86l-6.22,6.23-5.21,19.44v2.9h5.72v14.31h5.71v-11.45h2.86v14.29h5.71v-14.29h5.72Z" transform="translate(-242 -100)"/><rect class="cls-7" x="1072.94" y="941.63" width="80" height="80"/><path class="cls-8" d="M1356.85,1061.63l1.6-5.85-1.57-2.72h-4.8v4.29l1.18,4.28Zm4.19,2.86h-11.81l-4.29,4.29v13.86l1.26,4.71h3v20h5.71v-17.14h2.86v20h5.71v-20h2.86v-14.29Z" transform="translate(-242 -100)"/><rect class="cls-7" x="1365.78" y="1248.79" width="80" height="80"/><path class="cls-8" d="M1665.9,1388.32l-12.4-12.38h-8.85l-7.58,3.53-11.67,11.68,2.75,2.75,4-1.47,8.44-8.44v6.23h12.86V1384l11.12,11.13,2.75-2.76Zm-14.69-15.24,2-7.36-2.35-4.07h-7.2v6.43l1.37,5Zm.91,22.85-2.54,5.45,2,3.39-1.71,6.29v2.23l1.23,2.64h4.48v-4.28l2.86-10.38-3.09-5.34Zm-7.83,4.87-2.27-4.87h-3.18l-4.08,4.11,5.08,8.75v4.29h4.49l1.23-2.65v-2.22l-3-5.35Z" transform="translate(-242 -100)"/><rect class="cls-7" x="2225.16" y="1249.59" width="80" height="80"/><path class="cls-8" d="M2499.57,1368.4l-3.44-7.38h-10.39v40h8.57v-4.14h3.16l3.17-3.16v-9l4.21-1.54-5.28-11.32Zm-5.26,9.5a2.11,2.11,0,1,1,2.11-2.11A2.11,2.11,0,0,1,2494.31,1377.9Z" transform="translate(-242 -100)"/><path class="cls-8" d="M2514.75,1385.55l3.45-7.39h10.39v40H2520V1414h-3.16l-3.17-3.16v-9l-4.22-1.54,5.28-11.32ZM2520,1395a2.11,2.11,0,1,0-2.11-2.11A2.11,2.11,0,0,0,2520,1395Z" transform="translate(-242 -100)"/><rect class="cls-7" x="658.13" y="1592.14" width="80" height="80"/><path class="cls-8" d="M928.63,1721.48l1.43-5.23-1.41-2.43h-4.29v3.83l1,3.83Zm8.5,16.21v-3.44L932.37,1724H921.81l-3.83,3.83v9.72" transform="translate(-242 -100)"/><path class="cls-8" d="M938.49,1740.56H916.63v4h21.86Zm-16.32,6.73v10.63l1.19,4.33h9.58v-15Z" transform="translate(-242 -100)"/><path class="cls-8" d="M952.66,1709.69l-1.43-5.23,1.4-2.43h4.29v3.83l-1,3.83Zm-8.5,16.21v-3.44l4.76-10.21h10.56l3.83,3.83v9.72" transform="translate(-242 -100)"/><path class="cls-8" d="M964.66,1728.78H942.8v4h21.86Zm-16.31,6.73v22.41l1.19,4.33h9.57v-26.74Z" transform="translate(-242 -100)"/></svg>