<svg id="Plan03" xmlns="http://www.w3.org/2000/svg" viewBox="0 0 2975.84 1801.5"><defs><style>.cls-1{fill:#7588dc;opacity:0.3;}.cls-2{fill:#006;}.cls-10,.cls-3,.cls-6,.cls-7,.cls-8,.cls-9{fill:none;stroke-miterlimit:10;}.cls-3{stroke:#e20613;stroke-width:5px;}.cls-4{fill:#636cc7;}.cls-5{fill:#fff;}.cls-10,.cls-6,.cls-7,.cls-8,.cls-9{stroke:#006;}.cls-6{stroke-width:1.5px;}.cls-7{stroke-width:3px;}.cls-8{stroke-width:9px;}.cls-10{stroke-width:2px;}</style></defs><rect class="cls-1" x="2119.37" y="1045.99" width="594.78" height="490.2"/><polygon class="cls-1" points="206.97 950.76 206.97 1437.62 790.33 1437.62 790.33 1259.46 459.65 1259.46 459.65 950.76 206.97 950.76"/><rect class="cls-1" x="2789.93" y="1603.77" width="138.77" height="150.61"/><path class="cls-2" d="M338.81,663.8,910.26,816.86l10.25,2.75,4.59-17.21-10.48-2.81L321,640.58h0v942.67H985.31V1900H3137V1655.14H2922.45V1097.36H2025.91l-34.35-9.21-158.2,590-22.69,84.94-635.55-170.33L1356,917.85l-350.58-93.94-4.61,17.2,333.37,89.33-176.23,657.67-4.61,17.21,17.2,4.61,635.55,170.32,17.22,4.61,4.6-17.22,22.68-84.92L2004.15,1110l17.15,4.59,2.27.61h881.07V1673h214.55V1882.2H1003.12V1565.44H338.81V663.8Z" transform="translate(-161.16 -98.5)"/><polyline class="cls-3" points="760.71 1145.33 739.76 1166.27 760.71 1187.22"/><polyline class="cls-3" points="539.54 1035.42 560.48 1014.48 539.54 993.53"/><polyline class="cls-3" points="2295.42 1733.54 2316.37 1712.59 2295.42 1691.65"/><rect class="cls-4" x="2819.32" y="1639.07" width="80" height="80"/><path class="cls-5" d="M3027.85,1759l-4.67-10h-24.13v54.18h21.66v-5.6H3025l4.28-4.29v-12.21L3035,1779l-7.15-15.33Zm-7.14,12.86a2.86,2.86,0,1,1,2.86-2.86A2.86,2.86,0,0,1,3020.71,1771.86Z" transform="translate(-161.16 -98.5)"/><rect class="cls-4" x="2376.76" y="1251.09" width="80" height="80"/><polygon class="cls-5" points="2441.05 1305.38 2393.74 1305.38 2392.47 1300.78 2392.47 1270.68 2435.72 1270.68 2441.05 1282.11 2441.05 1305.38"/><rect class="cls-5" x="2408.24" y="1308.23" width="17.14" height="4.29"/><rect class="cls-4" x="293.31" y="1251.09" width="80" height="80"/><polygon class="cls-5" points="352.12 1303.41 352.12 1290.2 346.79 1278.77 314.5 1278.77 314.5 1298.82 315.76 1303.41 352.12 1303.41"/><path class="cls-5" d="M468.52,1370.13v38.93h51.91v-38.93Zm47.62,34.64H472.81v-30.36h43.33Z" transform="translate(-161.16 -98.5)"/><line class="cls-6" x1="118.99" y1="163.54" x2="26.71" y2="507.95"/><line class="cls-6" x1="144.04" y1="170.25" x2="51.75" y2="514.66"/><line class="cls-6" x1="169.09" y1="176.96" x2="76.8" y2="521.37"/><line class="cls-6" x1="194.13" y1="183.67" x2="101.85" y2="528.08"/><line class="cls-6" x1="219.18" y1="190.38" x2="126.89" y2="534.79"/><line class="cls-6" x1="244.23" y1="197.09" x2="151.94" y2="541.5"/><line class="cls-6" x1="269.27" y1="203.81" x2="177.37" y2="546.78"/><line class="cls-6" x1="294.32" y1="210.52" x2="202.42" y2="553.49"/><line class="cls-6" x1="319.36" y1="217.23" x2="227.47" y2="560.2"/><line class="cls-6" x1="344.41" y1="223.94" x2="252.51" y2="566.9"/><line class="cls-6" x1="369.46" y1="230.65" x2="277.56" y2="573.61"/><line class="cls-6" x1="394.5" y1="237.36" x2="302.61" y2="580.32"/><line class="cls-6" x1="419.55" y1="244.08" x2="327.65" y2="587.03"/><line class="cls-6" x1="444.6" y1="250.79" x2="352.7" y2="593.74"/><line class="cls-6" x1="469.64" y1="257.5" x2="377.75" y2="600.45"/><line class="cls-6" x1="494.69" y1="264.21" x2="402.79" y2="607.16"/><line class="cls-6" x1="519.73" y1="270.92" x2="427.84" y2="613.87"/><line class="cls-6" x1="544.78" y1="277.64" x2="452.89" y2="620.58"/><line class="cls-6" x1="569.83" y1="284.35" x2="477.93" y2="627.29"/><line class="cls-6" x1="594.87" y1="291.06" x2="502.98" y2="634"/><line class="cls-6" x1="619.92" y1="297.77" x2="528.03" y2="640.71"/><line class="cls-6" x1="644.97" y1="304.48" x2="553.08" y2="647.41"/><line class="cls-6" x1="670.01" y1="311.19" x2="578.12" y2="654.12"/><line class="cls-6" x1="695.06" y1="317.9" x2="603.17" y2="660.83"/><line class="cls-6" x1="720.11" y1="324.61" x2="628.22" y2="667.54"/><line class="cls-6" x1="745.15" y1="331.32" x2="653.26" y2="674.25"/><line class="cls-6" x1="770.2" y1="338.03" x2="678.31" y2="680.96"/><line class="cls-6" x1="795.25" y1="344.74" x2="703.36" y2="687.67"/><line class="cls-6" x1="820.29" y1="351.45" x2="728.4" y2="694.38"/><line class="cls-6" x1="1821.8" y1="1021.72" x2="1186.21" y2="851.41"/><line class="cls-6" x1="1815.41" y1="1045.52" x2="1179.83" y2="875.22"/><line class="cls-6" x1="1809.03" y1="1069.33" x2="1173.45" y2="899.03"/><line class="cls-6" x1="1802.64" y1="1093.14" x2="1167.07" y2="922.84"/><line class="cls-6" x1="1796.26" y1="1116.95" x2="1160.69" y2="946.64"/><line class="cls-6" x1="1789.88" y1="1140.75" x2="1154.31" y2="970.45"/><line class="cls-6" x1="1783.49" y1="1164.56" x2="1147.93" y2="994.26"/><line class="cls-6" x1="1777.11" y1="1188.37" x2="1141.55" y2="1018.07"/><line class="cls-6" x1="1770.72" y1="1212.17" x2="1135.17" y2="1041.88"/><line class="cls-6" x1="1764.34" y1="1235.98" x2="1128.79" y2="1065.69"/><line class="cls-6" x1="1757.95" y1="1259.79" x2="1122.41" y2="1089.49"/><line class="cls-6" x1="1751.57" y1="1283.6" x2="1116.03" y2="1113.3"/><line class="cls-6" x1="1745.19" y1="1307.4" x2="1109.65" y2="1137.11"/><line class="cls-6" x1="1738.8" y1="1331.21" x2="1103.27" y2="1160.92"/><line class="cls-6" x1="1732.42" y1="1355.02" x2="1096.89" y2="1184.73"/><line class="cls-6" x1="1726.03" y1="1378.82" x2="1090.51" y2="1208.54"/><line class="cls-6" x1="1719.65" y1="1402.63" x2="1084.13" y2="1232.34"/><line class="cls-6" x1="1713.27" y1="1426.44" x2="1077.75" y2="1256.15"/><line class="cls-6" x1="1706.88" y1="1450.25" x2="1071.37" y2="1279.96"/><line class="cls-6" x1="1700.5" y1="1474.05" x2="1064.99" y2="1303.77"/><line class="cls-6" x1="1694.11" y1="1497.86" x2="1058.61" y2="1327.58"/><line class="cls-6" x1="1687.73" y1="1521.67" x2="1052.23" y2="1351.39"/><line class="cls-6" x1="1681.35" y1="1545.47" x2="1045.85" y2="1375.19"/><line class="cls-6" x1="1674.96" y1="1569.28" x2="1039.47" y2="1399"/><line class="cls-6" x1="1668.59" y1="1593.09" x2="1033.09" y2="1422.81"/><line class="cls-6" x1="1662.23" y1="1616.91" x2="1026.71" y2="1446.62"/><line class="cls-6" x1="1655.87" y1="1640.72" x2="1020.33" y2="1470.43"/><line class="cls-7" x1="1331.74" y1="1579.39" x2="1510.38" y2="912.75"/><line class="cls-7" x1="159.84" y1="174.48" x2="624.08" y2="298.89"/><line class="cls-7" x1="47.94" y1="328.52" x2="799.33" y2="529.85"/><polyline class="cls-7" points="159.84 543.62 1.84 501.29 93.77 156.78 159.84 174.48 159.84 1.5 624.08 1.5 624.08 298.89 845.34 358.16 753.45 701.09"/><line class="cls-7" x1="1192.61" y1="827.51" x2="1828.2" y2="997.82"/><polyline class="cls-7" points="161.32 1484.76 161.32 1800 824.15 1800"/><line class="cls-8" x1="824.15" y1="1225.64" x2="824.15" y2="1476.2"/><polyline class="cls-8" points="168.38 916.93 824.15 916.93 824.15 1106.91 493.48 1106.91"/><line class="cls-8" x1="676.32" y1="1135.7" x2="676.32" y2="1106.91"/><line class="cls-8" x1="676.32" y1="1225.64" x2="676.32" y2="1196.85"/><line class="cls-8" x1="2261.24" y1="1569.99" x2="2754.06" y2="1569.99"/><line class="cls-8" x1="2085.54" y1="1569.99" x2="2178.13" y2="1569.99"/><polyline class="cls-8" points="493.48 1056.43 493.48 1225.64 704.95 1225.64"/><line class="cls-8" x1="493.47" y1="916.93" x2="493.47" y2="972.52"/><polyline class="cls-8" points="729.16 1011.92 606.54 1011.92 606.54 916.93"/><line class="cls-8" x1="2085.54" y1="1136.69" x2="2085.54" y2="1007.68"/><line class="cls-8" x1="2085.54" y1="1792.71" x2="2085.54" y2="1218.3"/><line class="cls-8" x1="2316.37" y1="1671.04" x2="2316.37" y2="1569.97"/><line class="cls-8" x1="2316.37" y1="1792.71" x2="2316.37" y2="1754.15"/><polyline class="cls-8" points="2500.13 1679.07 2756.11 1679.07 2756.11 1792.71"/><line class="cls-9" x1="2500.75" y1="1569.99" x2="2500.75" y2="1783.7"/><line class="cls-9" x1="2522.06" y1="1569.99" x2="2522.06" y2="1783.7"/><line class="cls-9" x1="2543.38" y1="1569.99" x2="2543.38" y2="1783.7"/><line class="cls-9" x1="2564.69" y1="1569.99" x2="2564.69" y2="1783.7"/><line class="cls-9" x1="2586" y1="1569.99" x2="2586" y2="1783.7"/><line class="cls-9" x1="2607.32" y1="1569.99" x2="2607.32" y2="1783.7"/><line class="cls-9" x1="2628.63" y1="1569.99" x2="2628.63" y2="1783.7"/><line class="cls-9" x1="2649.94" y1="1569.99" x2="2649.94" y2="1783.7"/><line class="cls-9" x1="2671.26" y1="1569.99" x2="2671.26" y2="1783.7"/><line class="cls-9" x1="2692.57" y1="1569.99" x2="2692.57" y2="1783.7"/><line class="cls-9" x1="2713.88" y1="1569.99" x2="2713.88" y2="1783.7"/><line class="cls-9" x1="2735.2" y1="1569.99" x2="2735.2" y2="1783.7"/><line class="cls-9" x1="2756.11" y1="1565.62" x2="2756.11" y2="1679.07"/><line class="cls-9" x1="606.54" y1="1011.92" x2="606.54" y2="1106.91"/><line class="cls-9" x1="627.85" y1="1011.92" x2="627.85" y2="1106.91"/><line class="cls-9" x1="627.85" y1="916.93" x2="627.85" y2="1011.92"/><line class="cls-9" x1="649.17" y1="1011.92" x2="649.17" y2="1106.91"/><line class="cls-9" x1="649.17" y1="916.93" x2="649.17" y2="1011.92"/><line class="cls-9" x1="670.48" y1="1011.92" x2="670.48" y2="1106.91"/><line class="cls-9" x1="670.48" y1="916.93" x2="670.48" y2="1011.92"/><line class="cls-9" x1="691.79" y1="1011.92" x2="691.79" y2="1106.91"/><line class="cls-9" x1="691.79" y1="916.93" x2="691.79" y2="1011.92"/><line class="cls-9" x1="713.11" y1="1011.92" x2="713.11" y2="1106.91"/><line class="cls-9" x1="713.11" y1="916.93" x2="713.11" y2="1011.92"/><polyline class="cls-7" points="2761.28 1327.75 2841.57 1327.75 2841.57 750.79 2094.5 750.79 2094.5 998.86"/><polyline class="cls-10" points="805.56 506.61 1286.58 635.5 1234.05 831.4 1194.38 820.77"/><line class="cls-9" x1="970.82" y1="550.89" x2="918.71" y2="745.37"/><line class="cls-9" x1="991.41" y1="556.41" x2="939.3" y2="750.89"/><line class="cls-9" x1="1011.99" y1="561.92" x2="959.88" y2="756.4"/><line class="cls-9" x1="1032.58" y1="567.44" x2="980.47" y2="761.92"/><line class="cls-9" x1="1053.17" y1="572.96" x2="1001.06" y2="767.43"/><line class="cls-9" x1="1073.75" y1="578.47" x2="1021.64" y2="772.95"/><line class="cls-9" x1="1094.34" y1="583.99" x2="1042.23" y2="778.47"/><line class="cls-9" x1="1114.93" y1="589.5" x2="1062.82" y2="783.98"/><line class="cls-9" x1="1135.52" y1="595.02" x2="1083.4" y2="789.5"/><line class="cls-9" x1="1156.1" y1="600.54" x2="1103.99" y2="795.02"/><line class="cls-9" x1="1176.69" y1="606.05" x2="1124.58" y2="800.53"/><line class="cls-9" x1="1197.28" y1="611.57" x2="1145.17" y2="806.05"/><line class="cls-10" x1="1171.22" y1="708.81" x2="944.76" y2="648.13"/><path class="cls-2" d="M926.52,804.85l76.42,20.48-3.58,13.33-76.42-20.47,3.58-13.34m-1.42-2.45-4.61,17.2,80.29,21.51,4.61-17.2L925.1,802.4Z" transform="translate(-161.16 -98.5)"/><rect class="cls-9" x="522.68" y="1126.27" width="124.44" height="80"/><line class="cls-9" x1="522.68" y1="1126.27" x2="647.12" y2="1206.27"/><line class="cls-9" x1="522.68" y1="1206.27" x2="647.12" y2="1126.27"/></svg>